<svg width="135" height="136" viewBox="0 0 135 136" fill="none" xmlns="http://www.w3.org/2000/svg">
<g clip-path="url(#clip0_202_33)">
<path d="M76.07 134.39C79.29 134.01 82.38 133.17 85.33 131.79C91.72 130.45 97.87 128.54 102.99 124.24C103.67 123.9 104.37 123.6 105.06 123.28C121.74 111.36 131.68 95.44 133.75 74.85C134.07 68.51 134.48 62.14 133.3 55.85C130.52 40.95 123.97 28.12 112.19 18.26C111.41 17.74 110.85 17.02 110.3 16.29C108.59 14.73 106.82 13.25 104.7 12.26C103.59 11.95 102.68 11.3 101.78 10.63C101.05 9.59 100.02 8.94 98.91 8.35C83.16 -0.0400031 66.61 -1.06 49.51 2.9C47.82 3.23 46.52 4.72 44.67 4.58C36.9 6.89 30.32 11.29 24.05 16.23C23.43 16.95 22.91 17.75 22.22 18.42C17.14 22.19 13.35 27.09 10.06 32.41C3.40001 43.18 0.170001 54.87 0.39 67.55C0.42 69.23 0.910003 71.07 0.330002 72.71C0.440002 73.69 0.409996 74.71 0.369996 75.72C0.389996 75.84 0.399999 75.95 0.419999 76.07C0.469999 76.33 0.500005 76.6 0.520005 76.86C0.700005 77.42 0.800008 78.03 0.930008 78.65C6.33001 104.31 20.19 122.7 45.84 130.91C50.41 131.66 54.61 133.75 59.17 134.52C64.81 135.4 70.44 135.13 76.06 134.38L76.07 134.39Z" fill="#EEB93F"/>
<path d="M67.22 112.68C42.33 112.68 22.33 92.62 22.35 67.68C22.38 42.98 42.41 22.83 67 22.79C91.85 22.75 112.08 42.87 112.11 67.65C112.13 92.54 92.06 112.67 67.22 112.68V112.68Z" fill="#357AF3"/>
<path d="M12.96 52.68C10.34 61.03 10.12 69.54 11.2 78.14C11.32 79.12 11.46 80.09 11.59 81.06C11.69 82.24 12.73 83.64 10.79 84.32C7.37 72.9 8.13 61.62 11.96 50.45C13.88 50.47 13.42 51.57 12.97 52.67L12.96 52.68Z" fill="#554216"/>
<path d="M78.26 126.36C76.24 123.89 76.38 121.15 75.61 118.75C75.36 117.99 75.74 117.25 76.59 116.99C77.52 116.71 78.26 117.07 78.94 117.72C80.17 118.89 80.98 120.53 82.66 121.33C83.55 119.34 81.37 117.68 82.96 114.88C84.38 118.17 85.58 120.89 85.17 123.82C84.95 125.38 83.31 125.05 82.22 124.03C80.97 122.86 80.11 121.28 78.42 120.43C77.66 122.3 79.51 124.04 78.24 126.35L78.26 126.36Z" fill="#554216"/>
<path d="M55.92 12.72C55.05 14.25 55.95 15.38 55.99 16.55C56.01 17.26 56.37 18.27 55.47 18.46C54.26 18.72 54.05 17.52 54.1 16.73C54.26 14.36 51.6 11.07 53.94 9.93C57.21 8.34 57.62 13.44 60.33 14.47C61 12.55 58.85 10.55 60.57 8.28C62.26 11.02 62.69 13.85 62.53 16.54C62.42 18.41 60.68 18.22 59.53 17.01C58.28 15.7 57.18 14.23 55.93 12.72L55.92 12.72Z" fill="#554216"/>
<path d="M46.8 113.03C46.54 116.42 44.96 119 43.02 121.05C41.75 122.39 40.08 120.5 38.8 119.76C37.04 118.74 36.65 117.13 38.12 115.41C38.59 114.86 39.21 114.38 39.51 113.75C40.01 112.72 39.67 110.75 41.27 111.01C42.87 111.27 41.47 112.79 41.57 113.74C41.65 114.56 42.08 115.1 42.83 115.39C44.93 116.22 44.84 113.64 46.8 113.03V113.03Z" fill="#554216"/>
<path d="M50.91 120.01C52.36 118.63 54.8 121.29 55.26 119.18C55.76 116.92 52.69 118.04 51.72 116.84C51.51 116.57 51.41 116.21 51.15 115.66C53.68 115.43 56.84 115.49 57.44 117.46C58.21 119.99 57.34 123.57 55.36 125.36C53.99 126.59 51.05 125.45 49.33 123.63C49.59 123.34 49.66 123.23 49.75 123.17C51.27 122.15 53.56 125.06 54.3 122.83C54.86 121.14 51.36 122.14 50.89 120.01L50.91 120.01Z" fill="#554216"/>
<path d="M91.45 22.92C91.37 19.94 93.27 17.71 95.08 16.04C96.99 14.29 98.46 17.05 99.96 18.01C101.29 18.87 101.28 20.33 100.11 21.52C99.69 21.95 98.98 22.11 98.61 22.56C97.74 23.66 98.13 26.29 96.55 26.04C94.2 25.66 96.9 23.62 96.09 22.36C94.14 19.34 93.15 22.91 91.45 22.92Z" fill="#554216"/>
<path d="M48.87 17.56C48.93 20.72 46.89 22.81 44.04 22.87C41.26 22.92 38.97 20.75 39.07 18.03C39.21 14.24 41.78 13.67 44.87 13.64C47.84 13.61 48.59 15.49 48.87 17.56Z" fill="#554216"/>
<path d="M27.28 25.75C27.32 23.44 28.5 21.96 30.51 21.16C31.55 20.75 33.1 20.49 33.45 21.68C33.92 23.31 32.24 22.62 31.46 22.79C29.87 23.14 29.05 24.14 29.21 25.69C29.37 27.31 30.34 28.54 32.02 28.67C33.66 28.8 34.78 27.94 35.25 26.23C35.47 25.44 34.58 23.7 36.17 24.03C37.69 24.35 37.29 26.05 36.82 27.19C35.8 29.63 33.95 30.92 31.25 30.43C28.69 29.97 27.62 28.1 27.29 25.76L27.28 25.75Z" fill="#554216"/>
<path d="M105.49 102.13C108.13 102.27 109.76 103.79 110.21 106.42C110.65 109.04 109.1 110.59 106.89 111.59C105.64 112.16 104.47 111.75 104.22 110.5C103.93 109.07 105.35 109.59 106.06 109.52C107.77 109.36 108.56 108.46 108.32 106.81C108.1 105.31 107.08 104.31 105.62 104.11C103.89 103.87 102.9 104.83 102.4 106.51C102.14 107.38 103.18 109.36 101.43 108.95C99.96 108.61 100.34 106.62 100.83 105.37C101.61 103.38 103.12 102.17 105.49 102.12L105.49 102.13Z" fill="#554216"/>
<path d="M92.66 120.23C91.02 120.23 89.51 118.53 89.28 115.69C89.07 112.97 91.33 110.72 94.11 110.74C97.08 110.77 98.66 112.45 98.88 115.3C99.09 118.01 96.86 120.18 92.66 120.22L92.66 120.23Z" fill="#554216"/>
<path d="M10.78 84.32C11.6 83.37 11.41 82.17 11.58 81.06C13.56 88.42 16.45 95.42 20.16 102.12C15.22 97.11 12.27 91.09 10.78 84.32Z" fill="#554216"/>
<path d="M71.58 15.31C72.68 13.12 73.48 11.5 74.31 9.9C74.65 9.25 75.06 8.39 75.93 8.77C76.84 9.17 76.43 9.98 76.09 10.66C75.22 12.43 74.38 14.23 73.49 15.99C73.04 16.88 72.52 17.75 71.27 17.58C70.24 17.45 69.83 16.71 69.56 15.86C68.93 13.86 68.33 11.85 67.71 9.84C67.49 9.11 67.26 8.29 68.26 8.05C69 7.87 69.28 8.66 69.48 9.19C70.15 11 70.74 12.83 71.58 15.3L71.58 15.31Z" fill="#554216"/>
<path d="M12.96 52.68C12.9 51.81 12.7 51.01 11.95 50.46C13.47 46.12 15.42 42.01 18.09 38.26C18.64 37.49 19.08 36.18 20.28 37.03C21.35 37.8 20.17 38.6 19.75 39.2C16.8 43.36 15.06 48.11 12.95 52.69L12.96 52.68Z" fill="#554216"/>
<path d="M67.05 120.4C64.85 122.49 65.37 125.63 62.35 127.16C62.71 123.71 64.15 121.17 65.43 118.63C66.06 117.38 67.42 117.32 68.08 118.59C69.22 120.78 70.08 123.13 71.02 125.43C71.21 125.89 71.16 126.49 70.61 126.67C69.89 126.91 69.46 126.4 69.21 125.79C68.52 124.08 67.84 122.37 67.06 120.41L67.05 120.4Z" fill="#554216"/>
<path d="M84.11 14.31C84.81 14.53 85.52 14.74 86.22 14.97C86.9 15.2 87.87 15.32 87.49 16.35C87.12 17.34 86.25 16.74 85.58 16.64C84.56 16.5 83.13 15.52 82.78 17.13C82.46 18.61 84.25 18.34 85.11 18.78C85.85 19.15 87.07 19.1 86.75 20.3C86.4 21.58 85.36 20.84 84.6 20.65C79.61 19.44 79.32 18.45 82.29 12.73C83.31 12.77 83.31 14 84.12 14.29L84.11 14.31Z" fill="#554216"/>
<path d="M31.67 114.29C28.73 113.38 27.06 111.45 24.61 108.4C28.84 110.48 30.42 108.31 32.06 106.21C32.56 105.57 33.23 104.55 34.12 105.34C35.04 106.17 33.97 106.86 33.46 107.47C31.86 109.38 28.94 110.87 31.68 114.3L31.67 114.29Z" fill="#554216"/>
<path d="M102.9 32.39C103.43 28.91 109.41 28.03 105.4 22.84C109.18 24.38 110.78 26.45 112.26 29.26C107.63 25.81 106.44 31.98 102.89 32.39L102.9 32.39Z" fill="#554216"/>
<path d="M84.11 14.31C83.28 14.05 82.69 13.5 82.28 12.75C82.26 11.55 82.47 10.35 83.99 10.49C85.68 10.65 87.39 11.02 88.74 12.21C88.89 12.34 88.81 13.06 88.67 13.13C88.26 13.32 87.76 13.36 87.29 13.36C86.13 13.36 84.38 11.34 84.1 14.31L84.11 14.31Z" fill="#554216"/>
<path d="M73.01 59.49C72.02 61.44 72.57 63.21 72.36 64.89C72.17 66.41 71.61 67.61 69.89 67.59C68.32 67.57 67.75 66.36 67.72 65.04C67.64 61.43 67.65 57.81 67.7 54.2C67.73 52.16 69.04 51.38 70.9 51.36C74.14 51.33 77.37 51.32 80.61 51.34C82.2 51.34 83.77 51.68 83.86 53.63C83.96 55.66 82.34 56.07 80.78 56.04C77.73 55.97 77.97 56.93 79.24 59.22C84.19 68.15 81.05 78.64 72.48 82.43C70.86 83.15 68.98 84.03 67.97 81.82C67.05 79.81 68.82 79.1 70.3 78.3C77.82 74.26 79.27 65.02 72.99 59.48L73.01 59.49Z" fill="white"/>
<path d="M53.25 79.19C49.78 74.38 48.21 69.66 49.35 64.32C50.47 59.09 53.58 55.4 58.27 53.01C59.75 52.25 61.49 51.55 62.51 53.5C63.55 55.49 61.92 56.3 60.44 57.15C54.31 60.64 52 66.93 54.73 72.66C55.35 73.95 55.95 75.89 57.63 75.49C58.91 75.19 58.16 73.3 58.32 72.12C58.42 71.38 58.32 70.61 58.48 69.89C58.75 68.7 59.49 67.83 60.8 67.89C61.94 67.93 62.76 68.76 62.78 69.79C62.89 73.89 62.95 78 62.78 82.1C62.71 83.76 61.14 84.11 59.68 84.12C56.44 84.13 53.21 84.14 49.97 84.12C48.34 84.12 46.79 83.65 46.8 81.76C46.82 79.82 48.47 79.56 50.04 79.47C50.89 79.42 51.74 79.32 53.26 79.19L53.25 79.19Z" fill="white"/>
<path d="M39.27 117.62C39.18 116.7 39.72 116.39 40.36 116.39C41.4 116.4 42.3 116.82 42.7 117.85C42.96 118.53 42.65 119.13 41.9 119.14C40.72 119.16 39.83 118.55 39.27 117.61L39.27 117.62Z" fill="#EEB93F"/>
<path d="M95.3 19.22C95.27 18.27 95.63 17.68 96.29 17.73C97.39 17.8 98.48 18.2 98.82 19.41C99.04 20.2 98.67 20.93 97.73 20.82C96.62 20.69 95.74 20.08 95.31 19.22L95.3 19.22Z" fill="#EEB93F"/>
<path d="M44.46 21.09C42.34 21 41.2 20.06 41.07 18.17C40.93 16.25 41.88 15.12 43.84 15.03C45.78 14.94 46.91 16.1 47.02 17.88C47.14 19.67 46.12 20.86 44.46 21.09Z" fill="#EEB93F"/>
<path d="M97.26 115.42C96.94 117.44 95.94 118.61 94.07 118.58C92.04 118.54 90.86 117.24 90.86 115.28C90.86 113.41 92.19 112.32 93.98 112.32C96.01 112.32 96.96 113.71 97.26 115.43L97.26 115.42Z" fill="#EEB93F"/>
<path d="M121.23 84.94C123.85 76.59 124.07 68.08 122.99 59.48C122.87 58.5 122.73 57.53 122.6 56.56C122.5 55.38 121.46 53.98 123.4 53.3C126.82 64.72 126.06 76 122.23 87.17C120.31 87.15 120.77 86.05 121.22 84.95L121.23 84.94Z" fill="#554216"/>
<path d="M123.4 53.29C122.58 54.24 122.77 55.44 122.6 56.55C120.62 49.19 117.73 42.19 114.02 35.49C118.96 40.5 121.91 46.52 123.4 53.29V53.29Z" fill="#554216"/>
<path d="M121.23 84.94C121.29 85.81 121.49 86.61 122.24 87.16C120.72 91.5 118.77 95.61 116.1 99.36C115.55 100.13 115.11 101.44 113.91 100.59C112.84 99.82 114.02 99.02 114.44 98.42C117.39 94.26 119.13 89.51 121.24 84.93L121.23 84.94Z" fill="#554216"/>
</g>
<defs>
<clipPath id="clip0_202_33">
<rect width="134.41" height="133.75" fill="white" transform="translate(134.08 0.669998) rotate(90)"/>
</clipPath>
</defs>
</svg>
