<svg id="Calque_1" data-name="Calque 1" xmlns="http://www.w3.org/2000/svg" viewBox="0 0 618.54 513.22"><defs><style>.cls-1{fill:#e9792f;}.cls-2{fill:#3579f0;}.cls-3{fill:#f9f6f0;}.cls-4{fill:#e97a2f;}.cls-5{fill:#faf7f1;}.cls-6{fill:#eeb840;}.cls-7{fill:#ece6d6;}.cls-8{fill:#3578f0;}.cls-9{fill:#010001;}.cls-10{fill:#3578ef;}.cls-11{fill:#000001;}.cls-12{fill:#010101;}.cls-13{fill:#070f1d;}.cls-14{fill:#534134;}.cls-15{fill:#544931;}.cls-16{fill:#747169;}.cls-17{fill:#68655e;}.cls-18{fill:#050503;}.cls-19{fill:#743c17;}.cls-20{fill:#524629;}.cls-21{fill:#6a6761;}.cls-22{fill:#2c3241;}.cls-23{fill:#070706;}.cls-24{fill:#5a5852;}.cls-25{fill:#4c4c4a;}.cls-26{fill:#3e3727;}.cls-27{fill:#383633;}.cls-28{fill:#5b4e30;}.cls-29{fill:#554d3c;}.cls-30{fill:#232c3f;}.cls-31{fill:#454441;}.cls-32{fill:#584c2f;}.cls-33{fill:#4c422b;}.cls-34{fill:#50452c;}.cls-35{fill:#060502;}.cls-36{fill:#4d4b46;}.cls-37{fill:#493120;}.cls-38{fill:#4d3c2e;}.cls-39{fill:#182e53;}.cls-40{fill:#51321d;}.cls-41{fill:#4a4843;}.cls-42{fill:#303947;}.cls-43{fill:#5d5b58;}.cls-44{fill:#543d2c;}.cls-45{fill:#49402a;}.cls-46{fill:#504630;}.cls-47{fill:#4f452e;}.cls-48{fill:#63615a;}.cls-49{fill:#52311a;}.cls-50{fill:#5d5b54;}.cls-51{fill:#3a3832;}.cls-52{fill:#412d1f;}.cls-53{fill:#1a2e51;}.cls-54{fill:#605438;}.cls-55{fill:#57554f;}.cls-56{fill:#5c4d2d;}.cls-57{fill:#5c5955;}.cls-58{fill:#29364b;}.cls-59{fill:#4f3522;}.cls-60{fill:#273244;}.cls-61{fill:#5a4f34;}.cls-62{fill:#5c5953;}.cls-63{fill:#493322;}.cls-64{fill:#5c5a57;}.cls-65{fill:#524831;}.cls-66{fill:#5a5751;}.cls-67{fill:#4f4d47;}.cls-68{fill:#4c4a45;}.cls-69{fill:#4a4943;}.cls-70{fill:#583a25;}.cls-71{fill:#7c7971;}.cls-72{fill:#482e1c;}.cls-73{fill:#4f3726;}.cls-74{fill:#543926;}.cls-75{fill:#514f4c;}.cls-76{fill:#272623;}.cls-77{fill:#504e48;}.cls-78{fill:#53514b;}.cls-79{fill:#5b5953;}.cls-80{fill:#595750;}.cls-81{fill:#2d3748;}.cls-82{fill:#433021;}.cls-83{fill:#503a29;}.cls-84{fill:#605e5a;}.cls-85{fill:#4d4b45;}.cls-86{fill:#51462c;}.cls-87{fill:#5c4635;}.cls-88{fill:#2f2d2b;}.cls-89{fill:#4e3a2b;}.cls-90{fill:#371c0a;}.cls-91{fill:#323d4f;}.cls-92{fill:#4f3c2d;}.cls-93{fill:#2a3549;}.cls-94{fill:#56402f;}.cls-95{fill:#4c4b46;}.cls-96{fill:#2c374a;}.cls-97{fill:#523d2d;}.cls-98{fill:#563f2e;}.cls-99{fill:#4d473a;}.cls-100{fill:#503a2a;}.cls-101{fill:#313a49;}.cls-102{fill:#303a4a;}.cls-103{fill:#333f51;}.cls-104{fill:#615f5a;}.cls-105{fill:#55534d;}.cls-106{fill:#52504a;}.cls-107{fill:#4c3828;}.cls-108{fill:#5b5a56;}.cls-109{fill:#503c2c;}.cls-110{fill:#584927;}.cls-111{fill:#443122;}.cls-112{fill:#5a5854;}.cls-113{fill:#2d384c;}.cls-114{fill:#57402f;}.cls-115{fill:#4c392b;}.cls-116{fill:#554130;}.cls-117{fill:#2c3341;}.cls-118{fill:#2e384a;}.cls-119{fill:#55534e;}.cls-120{fill:#66583a;}.cls-121{fill:#553f2e;}.cls-122{fill:#64625d;}.cls-123{fill:#263146;}.cls-124{fill:#533622;}.cls-125{fill:#433428;}.cls-126{fill:#4d442d;}.cls-127{fill:#4f463d;}.cls-128{fill:#62605b;}.cls-129{fill:#403f3b;}.cls-130{fill:#4d3728;}.cls-131{fill:#4c3929;}.cls-132{fill:#13110d;}.cls-133{fill:#5e5031;}.cls-134{fill:#333c4c;}.cls-135{fill:#5e5132;}.cls-136{fill:#333c4b;}.cls-137{fill:#4f3a2a;}.cls-138{fill:#4d3421;}.cls-139{fill:#28303d;}.cls-140{fill:#4f3c2c;}.cls-141{fill:#2a3446;}.cls-142{fill:#293242;}.cls-143{fill:#54534f;}.cls-144{fill:#293241;}.cls-145{fill:#595853;}.cls-146{fill:#283241;}.cls-147{fill:#4f3d2f;}.cls-148{fill:#473426;}.cls-149{fill:#4c3a2c;}.cls-150{fill:#4f3928;}.cls-151{fill:#574130;}.cls-152{fill:#4e3827;}.cls-153{fill:#54482d;}.cls-154{fill:#11100c;}.cls-155{fill:#534233;}.cls-156{fill:#010000;}.cls-157{fill:#faf5ee;}.cls-158{fill:#303c51;}.cls-159{fill:#5c412f;}.cls-160{fill:#524135;}.cls-161{fill:#262125;}.cls-162{fill:#4e3625;}.cls-163{fill:#472f1f;}.cls-164{fill:#2f292d;}.cls-165{fill:#443327;}.cls-166{fill:#513d2c;}.cls-167{fill:#f7f5f1;}.cls-168{fill:#434c5b;}.cls-169{fill:#6f6d68;}.cls-170{fill:#404754;}.cls-171{fill:#334057;}.cls-172{fill:#2a3445;}.cls-173{fill:#3b1f0c;}.cls-174{fill:#2d2225;}.cls-175{fill:#503e31;}.cls-176{fill:#623314;}.cls-177{fill:#633314;}.cls-178{fill:#4d2810;}.cls-179{fill:#4e2810;}.cls-180{fill:#2d2730;}.cls-181{fill:#555351;}.cls-182{fill:#605e5c;}.cls-183{fill:#6e6d6a;}.cls-184{fill:#5d5c59;}.cls-185{fill:#555452;}.cls-186{fill:#faf6ee;}.cls-187{fill:#060402;}.cls-188{fill:#050402;}.cls-189{fill:#311c0a;}.cls-190{fill:#79501d;}.cls-191{fill:#faf6ed;}.cls-192{fill:#594518;}.cls-193{fill:#493814;}.cls-194{fill:#4b3b14;}.cls-195{fill:#604b1a;}.cls-196{fill:#413212;}.cls-197{fill:#f4f1ec;}.cls-198{fill:#753d17;}.cls-199{fill:#ebe5d6;}.cls-200{fill:#ebe6d6;}.cls-201{fill:#848178;}.cls-202{fill:#514f49;}.cls-203{fill:#67645d;}.cls-204{fill:#1f2a3d;}.cls-205{fill:#2b2e30;}.cls-206{fill:#2c2f30;}.cls-207{fill:#272c30;}.cls-208{fill:#2e3132;}.cls-209{fill:#2e3032;}.cls-210{fill:#faf4ea;}.cls-211{fill:#4d4c4b;}.cls-212{fill:#554b35;}.cls-213{fill:#2d384b;}.cls-214{fill:#3477ed;}.cls-215{fill:#533513;}.cls-216{fill:#513413;}.cls-217{fill:#513514;}.cls-218{fill:#523514;}.cls-219{fill:#4f3313;}.cls-220{fill:#4d3212;}.cls-221{fill:#352e2c;}.cls-222{fill:#4d3112;}.cls-223{fill:#4f3312;}.cls-224{fill:#eae4d4;}.cls-225{fill:#2f3131;}.cls-226{fill:#2a2e34;}.cls-227{fill:#e9e3d3;}.cls-228{fill:#e7792e;}.cls-229{fill:#56544f;}.cls-230{fill:#716449;}.cls-231{fill:#877650;}.cls-232{fill:#524529;}.cls-233{fill:#0f0803;}.cls-234{fill:#030303;}.cls-235{fill:#020202;}.cls-236{fill:#4f452f;}.cls-237{fill:#504733;}.cls-238{fill:#4f4531;}</style></defs><path class="cls-1" d="M189,474.24l-18.43,10.44a37.65,37.65,0,0,0-7.51,4.08l0-.07c-3.34,1.55-4-1.87-5.88-3.12a147.15,147.15,0,0,1-8.08-14.26c-1-2.55-1.88-5.16-4.13-7-2.81-4.65-5.55-9.34-8.17-14.11-.27-2.37-2.18-3.91-3.08-6-3-4.85-4.83-10.34-8.59-14.73a61.54,61.54,0,0,1-6.09-10.25,18.11,18.11,0,0,0-2.37-4.91c-1.65-2.43-1-4.35,1.33-5.87a8.73,8.73,0,0,1,1.15-.75,40.76,40.76,0,0,0,6.47-3.64c.77-.48,1.57-.91,2.36-1.36,4.25-2.47,8.23-5.55,12.79-7.3,3.35-1.29,3.68-5.31,7-6.29,6.16-.47,10.46-5,15.72-7.35a21,21,0,0,0,7-3.81c1.71-1.16,3.28-2.53,5.34-3.08.89-.07,1.83.32,2.68-.27l4-2.94a39,39,0,0,0,7.52-4.07l0,0c2.46-1.45,5-2.68,7.55-4l11-7a38.53,38.53,0,0,0,7.52-4.08l-.05,0c2.46-1.44,5-2.68,7.56-4l11-7a39.53,39.53,0,0,0,7.51-4.08l0,0c2.46-1.43,5-2.68,7.54-4l4-3a39.28,39.28,0,0,0,7.51-4.08l-.05,0c2.46-1.44,5-2.68,7.55-4l11-7c9.27-5,18.95-8.47,29.64-8.5a24,24,0,0,1,6.85.92,34.56,34.56,0,0,1,11.11,2.54l-.07,0a76.26,76.26,0,0,1,18.54,11.08c1.49.48,1.59,1.95,2.18,3.07,5.39,4.19,8.64,9.88,11.16,16.07l3.1,5.33c1.25,2.57,2.3,5.24,4.08,7.51l0-.06c2.12,4.31,5,8.18,7,12.57-.53,1.85-1.41,3.34-3.57,3.55-3.6,1.69-7,3.66-9.58,6.78-11.88,7.33-24.11,14.05-36.12,21.17-11.55,6.84-23.73,12.66-34.52,20.76a3.16,3.16,0,0,1-1.88,1.52c-8.85,1.95-16,7.42-23.78,11.55-1.14.61-2.69.09-3.5,1.41-7.79,5-16.14,9-23.89,14.06-5.62,3.68-11.84,6.44-17.71,9.75-4.73,2.66-9.47,5.43-14,8.4-2.58,1.71-6.06,1.75-7.93,4.51C194,471.11,190.94,471.72,189,474.24Z"/><path class="cls-2" d="M120.06,419.21l5.52,9.49c4,5.13,6.21,11.14,8.75,17,4.64,8.94,6.1,18.78,8.1,28.47.9,4.37.68,8.89,1.85,13.23.24,3.4,1.22,6.91-1.47,9.87-1.84,1.05-3.88.83-5.86.83q-64,0-127.91,0c-1.33,0-2.66,0-4-.15C2,497.69.5,496.53.51,493q.2-67.2,0-134.4c0-6.86,4.72-3.51,7.57-4.33,7.73.79,15.46,1.56,23.1,3.07a4.87,4.87,0,0,1,2.12,1.25l4.69.3c7.29,2.32,14.44,5,21.58,7.77L61,367.75c7.66,2.92,14.28,7.67,21.19,11.92l0,0c2.6,2.12,5.39,4,8,6l-.11,0c4.88,1.92,8,6,11.65,9.45a36.69,36.69,0,0,0,4,3.56,7.26,7.26,0,0,1,2.23,2.54c.85,2.34,2.77,3.86,4.36,5.64a9.17,9.17,0,0,1,.81,1.05C115.28,411.74,118.2,415.15,120.06,419.21Z"/><path class="cls-3" d="M390.52,458.74c1.26,5.12,4.73,9.43,5.44,14.76,3.33,7.54,5.72,15.2,3.15,23.54-1.93,1.37-4.15,1-6.29,1q-75.92,0-151.85,0c-8.92,0-9.56-1-6.11-9.4,4.34-10.6,10.77-19.9,18.23-28.49a153.24,153.24,0,0,1,69.1-45.74c6.68-1.14,12.87,1.15,19.15,2.79,6.11,2.25,6.42,2.95,4.36,9.1a16.61,16.61,0,0,1-3.53,6.53,20.11,20.11,0,0,1-2.82,2.48c-1.68.95-3.28,2.4-4.84,1.31,4.22,1.21,7.81,4.67,11.87,7.39,5.5,5.13,11.14,10.15,14.37,17.18,1.37,3.32,3.13,6.45,4.71,9.67a9.44,9.44,0,0,1,.53,1.27,7.2,7.2,0,0,1,.38,3.11c1.55-2.36,3.71-3.8,5.47-5.64a11,11,0,0,1,1.08-.83c2-1.06,3.4-2.78,5.05-4.24a9.17,9.17,0,0,1,1-.81c2-1.07,3.36-2.78,5-4.22a9.5,9.5,0,0,1,1.08-.81C386.91,457.59,388.72,456.67,390.52,458.74Z"/><path class="cls-4" d="M315.55,109.88,308,108.37c-.33-1.74-2.54-.44-3.12-2,1.71-3,5.54-3.19,7.67-5.65,1.83-1.83,4.36-2.75,6.07-4.74,8.1-4.65,15.94-9.74,24.12-14.25a41.08,41.08,0,0,0,7.89-4.11c2.67-1.6,5.43-2.48,8.39-.66,4.73,2.75,8.53,6.74,13,9.83l-.05,0a200.63,200.63,0,0,1,16,16l0,0c2.11,3,4,6.05,6,9l0,0c1.92,3.23,3.43,6.67,5,10l0,0c5.17,12,6.15,24.71,5.45,37.6a24.32,24.32,0,0,1-.35,9.87c-.95,2.9-1.07,6-2.24,8.84-1.4,1.22,0,3.15-1.11,4.46-1.68,5.4-3.82,10.44-9.94,12.26a19.78,19.78,0,0,1-4.73,1.32c-8.42.28-16.84.34-25.21-.86-10.84-.94-20.54-5.13-29.81-10.53a5.61,5.61,0,0,1-2.33-2.53c-.44-1.68.47-2.93,1.54-3.94,6.07-5.74,8.82-13,9.82-21.09,1.48-5.41-.21-10.69-.85-16-.21-1.75.57-3.79-.84-5.37A28.12,28.12,0,0,0,333,122.19a16.28,16.28,0,0,0-6.07-6.36l0,0A29.23,29.23,0,0,0,315.55,109.88Z"/><path d="M343,233.74c-1.27-1.71-3.15-2.4-5.06-3.15-24.71-9.54-49.38-19.22-74.14-28.63-3-1.16-3.92-2.56-3.84-5.67.23-8.64.05-17.29.11-25.93,0-1.45-.84-3.59,1.94-3.67a15.18,15.18,0,0,1,2.2.33c35.24,13.64,70.43,27.42,105.68,41.06a11.78,11.78,0,0,0,9.14.26q33.27-13,66.61-25.77c1.31-.51,4.27-.06,3.12-3.22a1.33,1.33,0,0,1,.74-1.15c4.88.2,6.32,1.45,6.77,5.88a7.39,7.39,0,0,1,.06,2c-2.16,13.12,5.6,21.36,14.26,29.23a144.53,144.53,0,0,0,18.69,14.76c1.31.85,3,1.62,2.75,3.73-13.66-3-24.21-10.95-33.41-21-1-1.08-1.92-2.19-3.68-4.19,1,5-1.68,6.13-4.68,7.27-14.66,5.59-29.27,11.33-43.94,16.9-2.05.78-3.64,1.49-3.44,4a1.69,1.69,0,0,1-1.33.42c-6.84,0-12.62,3.64-18.6,6.13s-11.35,2.65-16.92-.43a22.27,22.27,0,0,0-3.37-1.14C356.59,237.78,350.18,234.79,343,233.74Z"/><path class="cls-5" d="M342.64,82.73Q333,88.55,323.4,94.37c-1.54.93-3,1.92-4.56,2.89-3.42,2.9-5.95,2.18-9.11-1.06C295,81.1,280,66.3,265.09,51.39a17.47,17.47,0,0,1-3-3.3c-.76-1.33.1-1.73,1.31-1.76q7.94,0,15.87,0c9.18-1.44,18.38-2.84,26.76-7.23,1.45-.76,3.12-1.23,4.05-2.76L314,34.23c2.13-1.82,3.81-4.17,6.4-5.44a.73.73,0,0,0,.6-.54c2.15-1.82,3.78-4.25,6.46-5.45L332,19.27a37.68,37.68,0,0,1,8.39-6.47c5.82-4.41,12.71-5.8,19.69-7,5,2,10.6,2.7,15.1,6l3.57,2.92C383,17.54,386,21.53,389.59,25q12.29,12.08,24.32,24.39c1,1,4.35,2.4.56,4.32-9.17-1.92-17.25,1.78-25.43,5l-1.74,2.07a114,114,0,0,0-17.4,17.39l-2.79,2.64c-3.3,2-4.61-1.73-7-2.38-2.79-2.6-5.63-2.83-8.85-.55A46,46,0,0,1,342.64,82.73Z"/><path class="cls-6" d="M455.9,27.4,464,19.21c2.13-1.82,3.77-4.23,6.45-5.39,3.73-3.64,8.55-5.5,13-8A95.23,95.23,0,0,1,506.07.35h9.16A71.29,71.29,0,0,1,556,16.81l0,0a52.82,52.82,0,0,1,8,8l0,0a119,119,0,0,1,7,10.05l0-.05a73.21,73.21,0,0,1,4,8.07l0-.07a74.41,74.41,0,0,1,5.41,24.83c.06,1.5.8,3.33-1,4.53a4.42,4.42,0,0,1-2.88-.51c-13-6.88-27.23-7.92-41.42-9.37-13.09-1.86-26.25-.63-39.37-1-2.55.08-5.14-.33-7.63.58a253,253,0,0,0-32.32,5.48c-4.51,1.12-8.13,4.53-12.94,4.65-2.15-7.71.14-15,2.06-22.36C447,41.48,451.44,34.41,455.9,27.4Z"/><path class="cls-6" d="M492,233.79a172.25,172.25,0,0,1-30-25.12c-6.29-6.74-8-14.11-7-22.65.57-4.77-1.3-7.15-6.08-7.29-3.72-1.73-5.57-6.33-3.9-9.7,1.38-2.79,3.62-1.83,5.6-1.14A127.86,127.86,0,0,0,477.87,174c7.92.92,15.91,1,23.84,1.58,17.5,1.29,34.73-.56,52-3,7.58-1.09,15-2.86,21.93-6.35a5,5,0,0,1,3.81-.71c1.82,3.5,1,7.14.55,10.76a15.77,15.77,0,0,1-2,9,91.09,91.09,0,0,1-3,9.72c-2.67,5.05-4.85,10.42-9.05,14.52-1,2.68-4,3.91-5,6.65a.67.67,0,0,1-.63.63c-2.67,1.23-4.41,3.54-6.39,5.56-6.89,5.16-14.22,9.47-22.71,11.47-10,2.78-20.1,3.09-30.32,2l.1,0c-3-.81-6.17-.89-9.1-2Z"/><path class="cls-4" d="M536.05,91.26a6.38,6.38,0,0,1,2.89,4c1.92,9.34-.79,15.95-10.86,20.28,2.29,1,4.15,2.48,6.4,3.27,2,.84,1.73,3.41,3.45,4.45A18.57,18.57,0,0,1,538,138l-2.53,3.74c-2.69,1.06-4.61,3.51-7.55,4.12,1.84.75,3.26,2.18,5.17,2.7,6.1,3.55,8.6,9.57,6.88,16.54a14.27,14.27,0,0,1-13.56,11.14q-14.92.63-29.85,0c-6.19-.25-10.57-3.2-12.82-8.68a16.38,16.38,0,0,1,1.8-16.59c1.39-1.93,3.73-2,5.44-3.33l-.11,0c2-.17,3.63-2.94,5.69-1.55-3.38-.09-5.94-2.9-9.19-4.41l-.36-.06-.07-.37a18.75,18.75,0,0,1-3-15.64l-.05.07c1.36-2.6,2.6-5.28,5.06-7.08l-.05,0a43.31,43.31,0,0,1,6.26-3.23c-12.28-3.87-15.45-17.43-7.48-26.2,2.82-3,2.82-3,6.86-4.29-10.27-1.66-13.57-11.94-11.31-20.11.73-2.61,2.66-3.64,5.2-3.83,2.45-.54,5,0,7.45-.77,12.94.29,25.91-.82,38.79,1,3.77-.15,4.61,2.72,5.27,5.45,2.14,8.74-2.79,16.38-11.54,18.45A8.79,8.79,0,0,1,536.05,91.26Z"/><path d="M106.25,400.39c-6-4.23-10.9-9.74-16.23-14.75,2-.86.43-1.95.06-2.76-6.35-14.13-4.8-27.37,5.56-38.8,10.09-11.13,22.94-13.81,37.26-9.56,2.37.7,4.69,1.6,7,2.4,1.34,1.8,3.41,2.58,5.18,3.8,13,11.49,16.19,30.61,7.46,44.65-1.22,2-2.37,4-4.85,4.72-4.53,7.58-13.19,9.28-19.8,13.89a7.43,7.43,0,0,0-4.79-.87A38,38,0,0,1,106.25,400.39Z"/><path class="cls-7" d="M42.46,58.76,46,56.22c6.09-3.12,11.35-2.29,16.53,2.6,3.75,3.55,3.92,7.86,1.3,14.14-.79,1.89-4.17,3.53-1.46,6.32,8.2,1.26,13.39,6.66,17.65,13.14A39,39,0,0,1,84,101a12.11,12.11,0,0,1-3.46,10.42c-3.14,3.28-7.33,3.51-11.64.34-2.61-1.92-3.94-2-6.35.6-4,4.38-9.34,6.66-15.59,5.45l-1.6,0c-5.65.53-8.3-4-11.8-7l.11-1.93c-1.4-3.08-3.61-3.12-6.33-1.82-6.14,2.92-12.07,2.3-17.78-1.24l-.41-.42C6,100.14,5,94.93,9.23,89.77L12,88.21c4.44-3.32,9.57-1.34,14.36-1.89a13.74,13.74,0,0,1,4.33.47c-.88-1.07-1.8-2.05-2.66-3.09-1.8-3.69-2.65-8.12-8.26-8.35-1.3,0-4.17-1-4.1-2.73.09-2.08,2.1-3.55,4.48-3.82,2.81.38.34,4.09,2.61,4.5-1.49-2.17-1.75-4.87-1.66-7.65V64c-.43-4.74,1.92-8.26,5-11.45l1.9-.15c4.54-1.87,7.61-.59,10.68,4.32C39.54,58,39.76,60.71,42.46,58.76Z"/><path d="M398.92,496.52c.24-7.83-1.92-15.35-3-23a113.52,113.52,0,0,1,33.09,8.59,25.59,25.59,0,0,1,4.68,2.81c5.56,4.07,5.62,8.37-.1,12.27-8,5.45-17.26,7.6-26.51,9.47-30.33,6.13-61,7.16-91.82,6.11-23-.79-45.76-2.8-68-9.13-4.28-1.22-8.6-2.48-12.27-5.2,1.28-2.44,3.54-1.16,5.26-1.16q76.65-.13,153.29-.11C395.38,497.15,397.29,497.8,398.92,496.52Z"/><path d="M143,496.58c0-3.29-.09-6.57-.14-9.85-.37-1.85-.82-3.7.42-5.42,5.48-1.62,9.75,2,14.53,3.39,2.18.78,2.35,4.23,5.3,4,2.86,7.32,2,9.66-5.6,13.31-12.62,6.06-26.31,8-40,9.37-29.2,2.88-58.38,2.67-87.35-2.66-7.51-1.39-14.93-3.16-21.84-6.56-1.93-.94-3.94-1.79-5.19-3.7,1.24-2.51,3.52-1.19,5.22-1.19q64.65-.13,129.32-.1C139.45,497.15,141.34,497.74,143,496.58Z"/><path d="M491,147.71c-3.6,3.43-7.13,6.79-7.32,12.35-.3,8.92,5.73,15.57,14.82,15.74,8.13.15,16.27.08,24.41,0,8,0,13.22-3.45,15.54-10,2.25-6.37,0-12.39-6.37-17.29-.35-.15-.48-.33-.39-.53s.2-.31.31-.31c13.81.54,27.45,2.23,40.46,7.12,4.38,1.65,9.51,3.29,8.33,9.9-.34.83-1.3.5-1.82,1-7.67,5.6-16.74,7.19-25.77,8.48-31.67,4.54-63.3,4.76-94.71-2.29-4-.91-7.88-2.46-12.15-3.83,0,3.86-1.38,7.86,2.67,10.65l-.06.09c-3.32,1.82-5.64-.27-8.05-2a1.15,1.15,0,0,1,.2-1.37c1.86-3.23.72-6.74.58-10-.21-5,2-7.66,6.21-9.56,9-4.09,18.63-5.6,28.29-6.9C481.06,148.24,486,147.4,491,147.71Z"/><path class="cls-4" d="M558.94,474.14c0-.32.16-.47.47-.45.34-3-2-1.93-3.31-1.95-7.28-.12-14.57-.06-21.85-.06-10.1,0-20.2,0-30.29,0-1.77,0-3.68.46-5.23-.93a66.84,66.84,0,0,1,0-13c1.68-1.54,3.77-1,5.69-1,16.69-.05,33.39,0,50.09-.05,1.8,0,3.64.34,5.36-.44,1.32-2-.64-2.66-1.53-3.6a122.17,122.17,0,0,0-8.83-8.8c-3.08-2.66-1.31-4.65.85-5.86,3.08-1.72,4.39-9.15,9.28-4.74,10.14,9.1,19.43,19.14,29.11,28.76,1.76,1.74,1.4,3-.18,4.57Q574,481,559.61,495.49c-1.44,1.44-2.71,1.79-4.19.16-.44-.49.16.07-.35-.36-8.7-7.52-8.69-7.5-.47-15.79C556.21,477.87,558.24,476.53,558.94,474.14Z"/><path class="cls-7" d="M489.42,380.76a2.64,2.64,0,0,0-.41.58,27.08,27.08,0,0,1-17.48,8.35q-4.08,0-8.15,0c-6.39-.48-11.84-3.18-16.81-7l-4.06-5.91c-5.72-7-5.24-14.88-3.16-22.94a21.28,21.28,0,0,1,1.63-4.12l-.05.07A31.58,31.58,0,0,1,450,339.69l-.07.07c6.84-5.06,15-5.35,22.85-5.36,24.93,0,49.86,1.4,74.8.84,4,1.8-.21,3.91.23,5.85-.8,1.69-1.58,3.39-3.69,3.82-18.91.58-37.82.08-56.73.26-6,.06-11.95-.24-17.9.21-13.86,1.93-19.11,14.32-14.87,25a23.36,23.36,0,0,0,2.84,3.8c.62.65,1.2,1.33,1.77,2,4.07,3.47,8.48,4.29,13.33,1.71,2.6-1.33,4.42-3.59,6.48-5.56.32-.59,0,.2.31-.39,4.17-8.09,7.31-9.37,16.44-6.71C497.51,372,493.17,376.25,489.42,380.76Z"/><path class="cls-8" d="M176,157.36l-1.68.52c-4,1-7.48,3.43-11.3,5l.07,0a55.27,55.27,0,0,0-11.08,5.5l-1.44.47c-4.13,1-7.65,3.48-11.54,5.07l.06,0a64.3,64.3,0,0,0-11.05,5.5l-1.71.53c-3.28,1.11-6.54,2.29-9.31,4.48l-1.43.43A43.27,43.27,0,0,0,104,190.32l-1.7.5c-4.1,1.05-2.65-2-2.25-3.47,1.24-4.65,3.4-9,4.72-13.63a10.78,10.78,0,0,1,.53-1.37c1.94-3.23,2-7.41,5.07-10.09a7.32,7.32,0,0,1,2.45-1.41A29.3,29.3,0,0,0,121.5,157,10.48,10.48,0,0,1,124,155.8c3.81-.89,7.1-2.93,10.47-4.79a10.78,10.78,0,0,1,2.47-1.18,28.39,28.39,0,0,0,8.57-3.84,11,11,0,0,1,2.47-1.18c3.8-.87,7.06-2.91,10.42-4.74a7.54,7.54,0,0,1,2.56-1.09c1.72-.22,3.27.44,4.87.88a12.32,12.32,0,0,1,1.36.52c6.44,2.62,13.08,4.72,19.44,7.51,2.11.93,4.26,2.22.43,4l.06,0C183.28,153.41,179.41,154.91,176,157.36Z"/><path class="cls-6" d="M560.66,403.74A24.71,24.71,0,0,1,555,398c-1.06-2.4.91-3.74,2.06-5.13,8.28-10.07,16.4-20.28,25.71-29.45,1.6-1.79,3-1.42,4.6.18Q601.6,378,615.94,392.22c1.82,1.81,1.68,3.11,0,5-7.51,8.49-7.45,8.53-15.59.39-1.77-1.76-3.48-3.59-5.33-5.26-.78-.69-1.74-2-2.63,0,0,11.63-.08,23.26.08,34.88,0,2.94-.65,4.27-3.85,4s-6.64,0-10-.07c-2.13-1-1.16-2.9-1.18-4.37-.09-10.12,0-20.24-.07-30.36,0-1.62.45-3.32-.93-5.57-3.9,3.43-7.24,7.23-10.93,10.64C564.22,402.74,563.24,405.09,560.66,403.74Z"/><path class="cls-9" d="M398.92,496.52c-1.71,2.05-4.05,1.11-6.09,1.11q-76,.09-151.94.07c-1.94,0-4-.59-5.82.72-2.84-.5-2.84-2.42-2.7-4.77,1.45-22.83,10.23-42.2,27-57.86.85-.79,2.2-1.55,2.33-2.47.19-1.38-1-.29-1.65-.36,8.77-6.46,18.06-11.93,28.63-15,10.83-6.55,22.59-6.7,34.62-5.07,1.57,1.13.83,2-.36,2.72-33.14,11.5-60.57,30.56-79.74,60.46a84.85,84.85,0,0,0-9.8,19.9c.87,1.13,1.94.71,2.84.71q79.85,0,159.68,0C396.94,496.73,397.93,496.6,398.92,496.52Z"/><path class="cls-6" d="M250,249.31c-11.8,5.57-20,14.37-23.91,26.91-1.2,1.66-2.13,1.1-2.44-.51a67.86,67.86,0,0,0-2.58-8.2c-1.72-1.82-1.85-4.68-4.05-6.18-5-8-12.41-12.94-21.15-16-1.24-.44-2.64-.27-3-1.93,3.65-2.19,7.9-2.88,11.7-4.69l3.92-2.94c9.24-6,14.79-14.6,17.46-25.16,2.42.52,1.08,2.7,2.12,3.65,2.57,5.1,3.73,10.93,7.95,15.16a18.8,18.8,0,0,0,7.4,7.29l2.35,2.11A54,54,0,0,0,260,244.7C256.49,247.36,252.42,246.64,250,249.31Z"/><path class="cls-5" d="M343,233.74c5.23-1.87,9.42,1.16,13.75,3.11,2.2,1,4.09,2.66,6.12,4,2.67.85,3.46,3.38,4.82,5.29-.49-1.48-2.35-2.55-1.7-4.55,6.47,3.82,12.65,2.55,19-.59,4.55-2.24,9.5-3.68,14.23-5.57,1.54-.62,2.86-1.32,2.77,1.3-.85,12.7-5,23.75-15.86,31.38-1.81,1.11-3.54,2.39-5.66,2.89-4.55.83-9.1,1.88-13.63-.06a7.81,7.81,0,0,1-1.38-.63c-6.86-2.59-7.14-9.4-9.51-14.86-1.45-4.3-5.66-5.86-8.59-8.68-2.75-2.14-6.3-3.6-6.48-7.85C340.79,236.9,342,235.36,343,233.74Z"/><path class="cls-10" d="M359.44,461.68c-2-4.95-5.68-8.55-9.39-12.16-1.41-1.38-2.73-2.84-4.09-4.27a17.16,17.16,0,0,0-6.37-5.31c-3.44-1.79-3.16-3.57-.63-5.8l1.77-1.59c2.43-.58,3.18-3.08,4.94-4.42,3.59-3,7.5-5.68,10.57-9.3C366.47,410,376.57,401,387.53,393c3.18-.67,4.6,2.43,7.06,3.3a3.85,3.85,0,0,1,1.56,2.15c.66,2.52,3,3.84,4.31,5.87a38.78,38.78,0,0,0,4.59,6.36l0,0c1.26,2.37,3.56,3.86,5,6l0,0c1.16,2.51,4,3.75,4.93,6.42,1.43,1.92,3.92,3,4.51,5.59.62,3.57-2.91,4.13-4.45,6.14l0,0c-2.37,1.25-3.86,3.55-6,5l.05,0c-2.37,1.26-3.87,3.55-6,5l0,0c-2.38,1.25-3.87,3.54-6,5l0,0c-2.37,1.25-3.87,3.54-6,5l0,0c-2.24,1.41-3.91,3.49-6,5l0,0c-2.39,1.23-3.88,3.52-6,5l0,0c-2.39,1.22-3.88,3.53-6,5h0a12.39,12.39,0,0,0-3.71,3c-2.17,2.28-3.47,1.31-4.44-1.1l0,.05C363.43,468.22,362.37,464.44,359.44,461.68Z"/><path class="cls-11" d="M341.27,157.77c-.61,9.74-5.13,17.46-12.3,23.82-2.72,1.13-4.43-.78-6.05-2.29a14.94,14.94,0,0,0-11.32-4c-5.78.18-11.58.13-17.37,0-7.27-.15-8.88-1.61-10-8.79a26.69,26.69,0,0,1-.63-6.9,3.8,3.8,0,0,1,.41-1.65c2.09-4.79-.37-9.53-.2-14.32.13-3.9-.68-7.83-1.07-11.75a3.55,3.55,0,0,1,2.29-1.32c1.83-.17,3.64-.24,5,1.39,1.36,7.54.92,15.31,3,22.75a2.9,2.9,0,0,1,.76,1.42c.28,1.46.43,3,.59,4.43.29,2.64,1.77,3.72,4.32,3.74s5.31-.15,7.94.07c4.07.35,6.61-1.05,8.83-4.74,4.31-7.16,17.89-10.45,25.82-6.86A12.35,12.35,0,0,1,341.27,157.77Z"/><path d="M358.88,340.87c-4.54-4.79-6.88-11.11-11.16-16.07,2,1.31,3.43,1.43,5.36-.9,7.51-9.09,13.49-18.81,15.33-30.71a31.81,31.81,0,0,0-.54-13.32,1.23,1.23,0,0,1,.3-1.56c4.73-1.9,9.74-.88,14.6-1.44a2.87,2.87,0,0,1,1.48.91,66.87,66.87,0,0,1-8.4,41.15C371.22,327.08,365,334,358.88,340.87Z"/><path d="M487.81,61.63c-6.1,4.24-5.39,14.71,1.25,19.9,2.7,2.1,6,2.58,9.84,4a16.92,16.92,0,0,0-11,4.29c-.36.42-.71.44-1.07,0-7.87-1.3-15.76-2.52-23.62-3.92a56.18,56.18,0,0,1-15.93-5.06c-2.84-1.46-5.53-3.13-5.42-6.94-.46-1.12.18-1.64,1.09-2,9.76-7,21.34-8.17,32.69-9.92,4.05-.62,8.14-1.45,12.3-1,.25.21.32.39.2.54A.44.44,0,0,1,487.81,61.63Z"/><path d="M536.05,91.26c-2.86-3.55-6.65-5.32-11.3-5.9,5.37-1.25,10.45-3.07,12.87-8.34S540.1,66.44,536,61.73c-.36-.17-.48-.34-.35-.51A.46.46,0,0,1,536,61c13,.88,25.88,2.48,38,7.7a37.59,37.59,0,0,1,5,3.15c1.64,1,1.78,2.46,1.06,4.1-1.85,4.29-5.95,5.52-9.78,6.88-9.86,3.52-20.18,4.88-30.53,6C538.08,89,535.82,88.29,536.05,91.26Z"/><path class="cls-1" d="M96.59,94.78c.6-1.39,2.13-1.32,3.16-2,3.48-.82,6.37-3.06,9.8-4l1.16-1c4.22-1,7.67-3.85,11.85-5l1.19-1c3.46-.82,6.36-3,9.78-4l1.17-1c4.22-1,7.67-3.84,11.84-5l1.18-1c3.48-.81,6.37-3,9.8-4l1.17-1c4.22-1,7.68-3.84,11.85-5l1.17-1c3.32-.83,6.19-2.71,9.32-4l-.06,0c3.51-.89,3.19,1.57,2.56,3.39-1.11,3.24-1.72,6.76-4.16,9.43a5.77,5.77,0,0,1-1.19.89A92.56,92.56,0,0,0,168,74.24a11.56,11.56,0,0,1-1.25.55,33.83,33.83,0,0,0-10,5A6.16,6.16,0,0,1,154.21,81a18.3,18.3,0,0,0-8.44,3.85,6.38,6.38,0,0,1-2.48,1.14c-3.84.55-7,2.63-10.24,4.53-.93.9-2.42,0-3.31,1.08-2.79,1.24-5.66,2.31-8.05,4.29A6.6,6.6,0,0,1,119.2,97c-3.89.65-7.17,2.64-10.37,4.8a6.22,6.22,0,0,1-2.47,1.15c-3.16.37-5.81,1.94-8.41,3.62-2.07.23-3.73,2.84-6.15,1.08C91,102.43,93.12,98.36,96.59,94.78Z"/><path class="cls-1" d="M214.09,136.29c-.26.89-.52,1.79-.79,2.68-2.34.55-3.4-1.07-4.16-2.73-1.32-2.87-3-5.58-3.72-8.71-.23-3.86-2.26-6.94-4.35-10a6.22,6.22,0,0,1-1.15-2.47c-.37-3.13-1.92-5.74-3.58-8.31-.89-.93,0-2.43-1.07-3.29a42.42,42.42,0,0,0-3.89-7.66c-.85-1-.24-2.45-1.16-3.42-1.34-3.33-3-6.49-4.64-9.7a9.67,9.67,0,0,1-.55-1.28c-1.05-3.67-3.19-6.84-4.7-10.31a5.88,5.88,0,0,1-.39-1.48c.15-4,2.12-7.47,3.45-11.12.33-.9.35-2,1.65-2s1.47,1.11,2,1.9a24.29,24.29,0,0,1,2.05,4.94l1,1c1,4.3,3.87,7.81,5.05,12l.94.94c.79,3.57,3.08,6.54,4,10l1,1c1.06,4.12,3.48,7.64,5.07,11.53l0-.06c1.25,4,3.83,7.48,5,11.55l1,1c1,4.29,3.87,7.8,5,12,1.34,1,1.54,2,0,3C216,130.25,214.92,133.22,214.09,136.29Z"/><path class="cls-12" d="M496,271.83l1.14.79a1.29,1.29,0,0,1-.42,1.64,5.2,5.2,0,0,1-1.68.8c-4.2.14-5.5,2.43-5.47,6.45.12,15.24.09,30.47,0,45.7,0,2.61.43,5.35-1.46,7.63-4,.14-8.12,1.65-11.93-.9-1.15-2.34-.91-4.87-.91-7.35q0-21.72,0-43.44a41.25,41.25,0,0,0-.72-8.94,2.4,2.4,0,0,1,.48-1.77C482,270.18,489,270.93,496,271.83Z"/><path class="cls-8" d="M206.1,126.87c2.8,3.79,2.61,9.37,7.2,12.1l-1.75,1.82c-4.81,1.34-8.94,4.21-13.52,6.08l.07-.05c-5.69,3.86-11.07,2.24-16.77-.36-4.94-2.26-10.2-3.86-15.33-5.69l.08,0c-1.94-.73-3.29-1.62-.79-3.37,1.3-.92,2.77-1.56,4.11-2.42a11.42,11.42,0,0,1,2.54-1.22c3.82-.88,7.12-2.92,10.5-4.8a11,11,0,0,1,2.49-1.19,28.56,28.56,0,0,0,8.71-3.94,11.57,11.57,0,0,1,2.66-1.26c.48-.14,1-.21,1.45-.37C203.94,120.18,204.33,120.39,206.1,126.87Z"/><path class="cls-8" d="M93,195.3l-1.63.56c-4,1-7.5,3.43-11.32,5l.06,0c-4.49.71-3.81-3.35-5.13-5.57l-.94-.88A27.65,27.65,0,0,0,71.47,188c-2.94-5.94-2.94-5.94,2.82-9.59a6.66,6.66,0,0,1,1.34-.59c4-.74,7.34-2.87,10.8-4.78a11.44,11.44,0,0,1,2.52-1.2,28.5,28.5,0,0,0,8.7-3.94,12,12,0,0,1,2.64-1.25c2.71-.17,5.69-3.68,7.66-1.41,1.55,1.79-1.09,5-1.92,7.62l0-.09a78.9,78.9,0,0,0-4.26,11.47C100.32,189.32,98.27,193.42,93,195.3Z"/><path class="cls-12" d="M389,58.68c7.8-5.63,16.22-8.47,25.87-5.66,1,.63,1.9-.84,2.88-.06,6.45,6.11,6.18,13.95-.66,19.54s-6.87,5.61-13.07-.59c-3.62-3.62-7.26-7.24-10.87-10.88C392,59.85,390.93,58.57,389,58.68Z"/><path class="cls-6" d="M290,131.93l-4.95-.3c-9.63,0-16.2-12.16-10.09-20.88l0,0c6.83-7.85,16.12-8,22.32-.07,4.23,5.42,2.62,11.13-.26,16.64A14.17,14.17,0,0,1,290,131.93Z"/><path class="cls-12" d="M96.59,94.78c-1.31,3.34-2.57,6.7-3.93,10-.45,1.11-1.06,2.12.48,2.84.38,2.27-1.5,2.8-2.9,3.44-13.15,6-26.25,12.1-39.42,18.06a9.42,9.42,0,0,1-4.77,1.25c-.8-.27-1.4-.68-1.07-1.67.11-3.75,4.44-6.75,1.94-11,2.11-1.58,4.76-.9,7.11-1.78,4.66-1.75,8.69-4,10.51-9,4.21,2.67,7.49,7.81,13.23,5.07,4.46-2.13,5.18-6.57,5.14-11.09-.52-2.14,1.19-1.55,2.22-1.81C89.07,98,92.29,95,96.59,94.78Z"/><path class="cls-3" d="M496,271.83c-4.4,2.12-9,.35-13.54.81-2.46.26-5,.16-7.46.22a5,5,0,0,1-5.62.55c-2.17-2.45.46-4.09,1.12-6a16,16,0,0,1,2.53-4.66l-.06.07c1.65-2.3,2.59-5,4-7.41,1.77-2.05,4-2,5.66-.34,2.66,2.68,6.11,4.5,8.3,7.67C492.54,265.79,495.43,268.16,496,271.83Z"/><path class="cls-13" d="M143,496.58c-1.58,1.87-3.73,1.06-5.62,1.06q-64.23.08-128.44.06c-1.94,0-4-.62-5.81.75C.77,497.89,0,496.64,0,494q.18-68.19,0-136.38c0-3.23.73-4.57,4.08-4a39,39,0,0,0,5,.27c.35.19.45.37.32.52a.53.53,0,0,1-.37.22C1.08,355,1.08,355,1.08,363c0,42.65.06,85.3-.09,128,0,4.3.74,5.87,5.56,5.84C52,496.55,97.52,496.61,143,496.58Z"/><path class="cls-14" d="M558.94,474.14c-1.05,4.78-5.42,6.87-8.39,10-2.17,2.31-2.35,3.57,0,5.88,6.74,6.56,6.62,6.68,13.12.18,7.78-7.77,15.49-15.6,23.36-23.28,2-1.91,2.74-3,.27-5.33q-13.86-13.32-27.2-27.2c-2.25-2.32-3.32-2-5.37.12-6.72,6.84-6.8,6.75-.1,13.48,2.47,2.47,4.9,5,7.35,7.49-.45,3.05-2.84,1.57-4.26,1.58-19.23.11-38.46.08-57.69.07a3.21,3.21,0,0,1-1.87-.42c1.44-1.26,3.18-.63,4.77-.63,17.13-.06,34.25,0,51.38,0h4.89l1.12-1.47c-4-3.59-8-7.25-12-10.76-1.94-1.67-2-2.82-.13-4.78,8.88-9.54,8.81-9.6,17.81-.6,7.52,7.53,15,15.14,22.63,22.52,2.39,2.3,2.83,3.67.18,6.23-9.69,9.36-19.18,18.92-28.59,28.55-2.28,2.35-3.91,2.67-5.89-.08-2.31-3.2-7.73-5.42-7.37-8.71s4.91-5.87,7.67-8.72C556,476.83,557.49,475.51,558.94,474.14Z"/><path class="cls-3" d="M382.89,277.66A36.72,36.72,0,0,1,368,278.79c-3.82-.19-6.9-2.18-10-4.1l.07.08c-2.89-1.75-3.49-4.11-1.9-7.06l.76-.61c1.51-1.79,3.16-1.22,4.64-.1s3.08,1.72,4.47,2.79l-.12-.08c5.08,2.62,10.15,1.76,15.23,0,1.5.1,2.13-2,3.78-1.5,2.27-2.27,4.5-4.65,8.1-2.39l-.11-.1c3,3.58,1.31,6-2,8l.06-.06A31.79,31.79,0,0,1,382.89,277.66Z"/><path class="cls-15" d="M405.05,410.67c-2.59-1.16-3.95-3.46-5.33-5.74l.38-.6c4.11-4.13,4.4-9.86,6.13-15,.54-1.58-1-2.29-2.32-2.72-12-4-24-8-35.93-12-3.73-1.26-4.18,1.43-5,3.78-5.25,15.6-10.34,31.25-15.64,46.83a17.67,17.67,0,0,1-.85,2.34,5.69,5.69,0,0,0-.34,1.35c-1.58,1.58-2.73,3.79-5.45,3.64,3.35-2.85,3.84-7.14,4.83-10.94.74-2.84-2.92-2.08-4.48-3.13a.82.82,0,0,1,.18-1.21c3.82-.18,5.56-2.32,6.68-5.92,3.14-10.08,6.68-20,9.9-30.1.54-1.66,1.67-3.25,1.13-5.18,2.13-4.36,5.84-6.09,10.48-6.3-2.1,1.85-1,2.32,1,3,11.65,3.82,23.2,8,34.91,11.58,4.23,1.3,5.1,2.88,3.29,6.87-1.7,3.74-2.49,7.9-4.05,11.72C403.49,405.71,403.44,408.16,405.05,410.67Z"/><path class="cls-16" d="M495.85,365.84c-1.81,0-3.63.05-5.42-.15-4.56-.51-8.49-.26-8.91,5.73a2.18,2.18,0,0,1-2.41,2c-.9-6.13-.9-6.08-8.33-5.82-1.52.05-3.77.86-3.79-2.08,2.44-2.8,5.91-3.15,9.14-3.21q35.06-.72,70.13,0a10.14,10.14,0,0,1,2,.32,4.21,4.21,0,0,1,2.95,2.36c-1.49,1.06-3.2.74-4.84.74q-24.2,0-48.41,0C497.17,365,496.54,365.76,495.85,365.84Z"/><path class="cls-17" d="M496.9,273.54a1.09,1.09,0,0,1,.22-.92c1.51,1.55.72,3.48.73,5.21.07,17.31.15,34.61,0,51.92-.05,3.72.95,4.82,4.72,4.8,15.8-.12,31.61.08,47.41.17.2.94-.13,1.32-1.09,1-28,0-55.89.1-83.83-.07-5.54,0-10.13,2.48-15.09,4.08,2.93-3.82,7.3-4.47,11.59-5.16,1.77-.29,3.66.16,5.22-1.08.72,0,1.43-.15,2.14-.17,2.62.3,5.27-.55,7.87.23,3.6,2.49,7.62.72,11.42,1.12,1.76-2.08,5.29-.54,6.71-3.3.92-1.91.61-3.93.61-5.9,0-15.1,0-30.2,0-45.3C495.52,277.9,495.26,275.52,496.9,273.54Z"/><path class="cls-18" d="M582.89,363.67q-12.39,15-24.75,29.93C557,395,556,396.55,555,398l-3.43-3.15,31.37-32.36c.3.26.4.52.3.77S583,363.67,582.89,363.67Z"/><path class="cls-19" d="M499.06,470.56q30,.06,60.08.16c1,0,2.71-.72,2.92.85s-1.12,2.19-2.65,2.12c-1-2.29-3.09-1.16-4.61-1.17-17.31-.1-34.61,0-51.91-.1-1.57,0-3.33.73-4.72-.69C498.38,471.27,498.4,470.67,499.06,470.56Z"/><path class="cls-20" d="M582.89,363.67c0-.38,0-.76,0-1.15,1.09-2.5,2.37-2.13,4.05-.44q15.13,15.24,30.39,30.37c1.46,1.44,1.67,2.29.19,4-8.86,10.25-8.78,10.27-18.2,1-2-2-3.59-4.41-6.28-5.59a1.34,1.34,0,0,1-.15-2.05c4.72,3.43,8.41,7.94,12.5,12,1.9,1.89,2.92,1.69,4.77-.07,7.37-7,7.44-7,.17-14.24q-11.28-11.28-22.55-22.56C586.39,363.53,585.13,361.76,582.89,363.67Z"/><path class="cls-21" d="M262.17,47Q278.57,63.6,295,80.23c4.66,4.72,9.56,9.23,14,14.15,2.87,3.17,5.57,5.33,9.86,2.88-1.2,2-3.23,2.87-5.34,3.59a1.15,1.15,0,0,1-1.62-.1c.52-2.35-1.58-3.13-2.77-4.32q-22.86-23-45.83-45.91c-1.16-1.16-2.19-2.46-3.28-3.69A1.44,1.44,0,0,1,262.17,47Z"/><path class="cls-22" d="M293,155.66a2.31,2.31,0,0,1,0-1c13.48-6,27.5-10.69,41.18-16.21,1.49-.61,3.73-.39,4.26-2.67,3.3,2.95,2.34,7.14,3,10.81s1,7.47-.2,11.16c-.13-1.78-.27-3.56-.41-5.34-1.68-1.85-1.67-4.26-2.06-6.5-.92-5.39-1.39-5.79-6.28-3.83-9.06,3.62-18.22,7-27.36,10.4C301.27,153.94,297.62,156.83,293,155.66Z"/><path class="cls-23" d="M490.9,262.73c-3.09-1.72-6.41-3-8.4-6.35-1.42-2.35-3.55-1.76-5.54-.54-.29-.24-.39-.48-.3-.73s.18-.37.27-.37l5.32-9.81C485.13,251.58,489.62,256.33,490.9,262.73Z"/><path class="cls-24" d="M417.79,53c-.94.8-1.89,1.6-2.88.06,1-2.26-1.32-2.67-2.27-3.64C402.44,39,392.12,28.81,381.86,18.52c-1.14-1.15-2.11-2.48-3.16-3.72.61.15,1.41.1,1.79.48C393,27.81,405.87,39.89,417.79,53Z"/><path class="cls-25" d="M128.06,179.34c2.8-3.61,6.87-4.66,11.05-5.5-1.06,2.2-3.83,1.61-5.53,3.6,14.41,4.09,28.51,8.62,39.68,19.07l-.47.5a102.72,102.72,0,0,0-37.91-17.58C132.58,178.9,130.35,178.46,128.06,179.34Z"/><path class="cls-26" d="M560.66,403.74c4.16-1.14,6.1-4.95,9-7.59,2.51-2.3,4.63-5,6.93-7.56.45.29.9.58,1.36.86v41.19c.33.18.45.37.35.57s-.21.31-.32.31c-2.17-1-1-2.88-1-4.29-.12-11.68-.07-23.37-.07-36.39-4.75,4.79-8.63,8.73-12.55,12.64C563.24,404.59,562.09,406.42,560.66,403.74Z"/><path class="cls-24" d="M131,307.48c-17.73,1.3-34.91,4.74-50.83,13.07C95.36,311.18,112,307,129.72,306.6,130.65,306.17,131.05,306.5,131,307.48Z"/><path class="cls-27" d="M468.32,334.64l-1.58-1.12c0-19.15,0-38.3,0-57.44,0-1.56-.7-3.4,1.14-4.54.55.22.73.85,1.24,1.11l5.85.21a3.47,3.47,0,0,1,0,.72c-5.07,2-5.52,6.05-5.45,10.85.22,14.32.1,28.65.06,43C469.61,329.87,469.92,332.44,468.32,334.64Z"/><path class="cls-28" d="M442.94,71.86l-1.09,2c-1.93-11.71,1-22.63,5.67-33.18,2.1-4.81,4.31-9.67,8.38-13.29.39,2.31-1.48,3.59-2.49,5.21C445.89,44.63,442,57.6,442.94,71.86Z"/><path class="cls-29" d="M193.21,243.66c8.24,2.52,15.65,6.46,21.39,13,1.14,1.3,3,2.39,2.41,4.63-5.56-6.1-11.37-11.77-19.44-14.7-3-1.09-3.67-.39-4.06,2.35-.77,5.48-1.32,11-4.31,15.94l-.42-.35c1.3-6.56,4.29-12.85,3.23-19.8a1.72,1.72,0,0,1,.61-1Z"/><path class="cls-30" d="M402.88,169.55l1.13-9.62c.24-.65.55-.69.93-.1.45,2.35,2.69,2.17,4.22,2.79,10.61,4.33,21.27,8.54,31.92,12.78a.38.38,0,0,1-.29.58c-2.36,1.52-4.49.17-6.56-.66-7.19-2.87-14.49-5.48-21.66-8.41-5.27-2.15-5.29-2.1-7.81,2.82-.4.77-.92,1.35-1.9,1.19A1,1,0,0,1,402.88,169.55Z"/><path class="cls-31" d="M393,265.82c-3.2-.91-5.63.79-8.1,2.39-.5-1.35.68-1.84,1.41-2.23,9.8-5.23,12.35-14.73,14.54-24.46.35-1.59.74-3.18,1.12-4.76a5,5,0,0,0,.86,0c-.63,9.37-3,18.14-9.12,25.51C392.76,263.39,391.69,264.3,393,265.82Z"/><path class="cls-32" d="M556,16.81c-2,.31-2.91-1.39-4.13-2.33-10.66-8.14-23-11.77-36-13.75q-.43-.28-.27-.51a.45.45,0,0,1,.33-.21C531.16,1.12,544.91,5.79,556,16.81Z"/><path class="cls-33" d="M228.06,214.26l-1.64-2.6a43.08,43.08,0,0,1-13.35,21.77c-1.3,1.12-2.37,2.93-4.59,2.34,9.77-8.08,16.44-18,17.84-31A19.54,19.54,0,0,1,228.06,214.26Z"/><path class="cls-34" d="M297,127.35c-.41-2.31,1.47-3.91,1.86-6a13.3,13.3,0,0,0-6-14c-4.47-2.7-10.85-2-15.19,1.57-.84.7-1.3,2-2.7,1.9,3.75-6.79,12.1-8.74,18.95-4.42C301.08,110.89,302.46,120.21,297,127.35Z"/><path class="cls-35" d="M578,431.52a2.36,2.36,0,0,0,0-.88c4.46-.06,10.27,1.55,13-.66,2.91-2.33.82-8.39.91-12.82.16-7.65,0-15.3.1-23,0-1.47-1-3.32.94-4.43l.15,2.05c0,11.95-.16,23.9,0,35.85,0,3.33-1,4.3-4.17,4C585.29,431.42,581.62,431.57,578,431.52Z"/><path class="cls-36" d="M62.07,79.62c-1.32,0-2.94.18-2.06-2a20.55,20.55,0,0,1,1.39-2.05c2.68-4.84,5.53-9.73,1.6-15.22C59.6,55.58,53,54,46,56.22c3.42-3.38,8.72-3.42,14.18-.11S67.6,64.2,65.72,70c-1,2.94-2.37,5.73-3.58,8.59.32.25.42.48.29.7S62.19,79.62,62.07,79.62Z"/><path class="cls-37" d="M486.82,89.79h1.07c-7.9,12-3.61,22.56,11,25.48l-10,3.5c.44-2.08,3.05-1.77,3.83-3.47C481.54,109.17,479.15,98.8,486.82,89.79Z"/><path class="cls-38" d="M316,308.55c-11.83-1.72-22.84.82-33.25,6.41a4.54,4.54,0,0,1-3.26.77c11.14-7.44,23.2-10.72,36.57-8.13.34.24.45.45.32.66S316.1,308.55,316,308.55Z"/><path class="cls-29" d="M204.56,238.71c-3.17,3.07-7.59,3.25-11.35,4.95l-.5.35c-1.1.19-2.16.33-1.72-1.39,1.77-.83,2-2.23,1.89-4.06a66.64,66.64,0,0,0-3.52-18c-.52-1.44-1.9-2.8-.87-5.13,4.23,8.33,5.73,16.8,5.7,25.76C198,241.47,200.89,238.38,204.56,238.71Z"/><path class="cls-39" d="M166,140.77c5.51.42,10.38,3,15.3,5.08,5.66,2.37,11,3.72,16.8,1a27.78,27.78,0,0,1-11.06,5c1.37-1.72.77-2.29-1.19-3.08C179.23,146.12,172.16,144.55,166,140.77Z"/><path class="cls-40" d="M404.94,159.83a2.47,2.47,0,0,0-.93.1c.94-13.07-1.27-25.73-5-38.2,5.62,9.84,6.28,20.7,6.44,31.64C405.48,155.52,405.12,157.67,404.94,159.83Z"/><path class="cls-41" d="M62.07,79.62l.07-1C71.56,80,77.32,86,81.81,93.78c1.06,1.82,1.29,4.15,3.32,5.36L82.91,101C79.71,90.18,73.36,82.49,62.07,79.62Z"/><path class="cls-42" d="M59.57,366.62A94.63,94.63,0,0,1,38,358.85c6.58.65,12.36,4,18.63,5.72l1.64-11.79c.3-.43.61-.43.93,0-.31,2.8-.67,5.59-.93,8.4C58.09,363.1,57.73,365.14,59.57,366.62Z"/><path class="cls-43" d="M310.06,36.34c-.05,2.43-2.3,2.61-3.74,3.33a68.36,68.36,0,0,1-26.38,6.94c-.31-.19-.39-.36-.27-.51a.45.45,0,0,1,.34-.21c7.44-2.11,15.34-2.52,22.4-6C304.92,38.59,307.51,37.5,310.06,36.34Z"/><path class="cls-44" d="M534.48,118.81c-3.55-.15-6.26-2.86-9.94-3.19,5.31-1.3,9.8-3.4,12.67-8.2,2.31-3.87,1.32-8.09,1.73-12.16,3.2,8.07.22,14.92-8.94,20.06Z"/><path class="cls-45" d="M45,128.72l1.12,1.13c4,4.35,5.43,10.08,7.77,15.26,1.86,4.11,5,7.85,4.92,12.74a1.85,1.85,0,0,1-.92,1.13c-5.1-9-8.82-18.72-13.24-28.08A1.61,1.61,0,0,1,45,128.72Z"/><path class="cls-46" d="M580,75.91c-.36-1.37-.71-2.73-1.06-4.1,2-8.14-.8-15.72-2.66-23.43-.46-1.87-1.86-3.52-1.35-5.62C580.38,53.24,582.3,64.25,580,75.91Z"/><path class="cls-47" d="M250,249.31c1.82-3.38,5.74-2.36,8.35-4.09-4.18-2.06-9.22-2.6-12.58-6.4,6.48,2,12.37,5.68,19.4,6.23C260,246.71,254.76,247.1,250,249.31Z"/><path class="cls-48" d="M441,349.69c-.12,3.61-2.07,6.78-2.24,10.46a33.44,33.44,0,0,0,3.77,16.6c-4.4-2.05-4.24-6.41-4.94-10.18C436.46,360.56,436.83,354.71,441,349.69Z"/><path class="cls-49" d="M189.05,63.3c-1.23-2.09-2.46-4.18-4.06-6.88-1.85,5.08-4.78,9.19-4,14.43-1.7.39-2.37-.77-3-2,2.15-3.19,3-7,4.5-10.41.75-1.7.14-2.48-1.56-2.67,2.57-2.63,4.77-3.34,6.06,1.12C187.65,59.06,189.67,60.76,189.05,63.3Z"/><path class="cls-50" d="M9.52,105.78c7,2.73,13.74,2.92,20.67-.69,3.39-1.77,2.46,2.29,3.44,3.75-2.29-1.67-4.36-1.82-7.25-.67C20.53,110.49,14.47,111.23,9.52,105.78Z"/><path class="cls-51" d="M75,179.17c-6.71,2.62-4,6.85-1.86,11,.69,1.32,1.4,2.64.92,4.21a175.48,175.48,0,0,1-10.31-22.27,1,1,0,0,1,1.14-.49,1.11,1.11,0,0,1,.41.24C67.73,174.71,72.48,178.31,75,179.17Z"/><path class="cls-52" d="M551.17,365a3.11,3.11,0,0,1-2.41-1.43c-3.52-1.52-4-4.9-5-8a10.49,10.49,0,0,1-.23-1.56,43.52,43.52,0,0,1,.16-8.07A4.51,4.51,0,0,1,545,343.8l1.62-3.37a1.84,1.84,0,0,1,1,.92c.47,4.92-1.26,9.86.46,14.81,1.07,3,2.41,5.47,5.95,5.85a2.12,2.12,0,0,1,1.06.88C554.35,364.63,552.78,364.84,551.17,365Z"/><path class="cls-53" d="M93,195.3c7.55-4.22,8.19-12.4,11.14-19.27.49-1.14.44-2.69,1.92-3.29-.4,5.22-3.27,9.63-4.67,14.52-.33,1.14-2.31,3.17.93,3.56C99.49,192.84,96.23,194,93,195.3Z"/><path class="cls-37" d="M553.19,335.42a3.85,3.85,0,0,1,2.81,1.84c4.71,6.13,4.25,19.5-.88,25.63l-.32-.3a3.17,3.17,0,0,1-.1-3.28c3.18-7.88,2.4-15.39-2.06-22.56A1.26,1.26,0,0,1,553.19,335.42Z"/><path class="cls-54" d="M275,110.75c-.19,3.24-2.32,6.1-1.57,9.57,1.39,6.42,5.67,9.71,11.66,11.31l-2.31.23C272.56,129.13,268.61,118.4,275,110.75Z"/><path class="cls-55" d="M59.19,352.76l-.47,0h-.46c2.8-13.3,4.83-17.83,10.78-22.87C63.5,336.6,61.46,344.73,59.19,352.76Z"/><path class="cls-56" d="M500.88,235.77a161.94,161.94,0,0,0,30.32-2A51.81,51.81,0,0,1,500.88,235.77Z"/><path class="cls-57" d="M369.9,78.14c4.44-7.16,10-13.24,17.4-17.39Z"/><path class="cls-58" d="M284,157.93a5.06,5.06,0,0,1,0,.87,1.55,1.55,0,0,1-1,2c-6.55,2.72-12.9,6-20.06,7l-.95-1.1C269,163,276.58,160.66,284,157.93Z"/><path class="cls-42" d="M82.14,379.67,61,367.75C69.07,369.84,75.89,374.26,82.14,379.67Z"/><path class="cls-59" d="M388.05,102.77a152.77,152.77,0,0,1-16-16A48.89,48.89,0,0,1,388.05,102.77Z"/><path class="cls-60" d="M9,354.66a3.69,3.69,0,0,1,.05-.74c7.72,0,15.24,1.56,22.78,2.91a1.78,1.78,0,0,1,1.46,1.72Z"/><path class="cls-61" d="M506,.77,483.39,5.85c7-4,14.66-5.42,22.58-5.85.32.16.43.32.33.5S506.1.77,506,.77Z"/><path class="cls-62" d="M131,307.48l-1.27-.88,22-6.11q.81-.19.54.6C145.6,304.64,138.36,306.27,131,307.48Z"/><path class="cls-63" d="M345.54,321.73c-2.48.64-3.45-1.6-4.82-2.77-4.14-3.52-9.5-5-13.72-8.31C334.45,312.21,340.33,316.42,345.54,321.73Z"/><path class="cls-64" d="M366,269.79c-3.38.28-5.31-4.38-9.11-2.69,1.36-2.12,1.07-4.17.23-6.48-.58-1.61-1.92-3.18-1.2-5.14.42.43,1.12.81,1.23,1.32A19.77,19.77,0,0,0,366,269.79Z"/><path class="cls-55" d="M155.07,346.76c-4.3-1.2-6.89-5.69-11.64-6-1.89-.6-3.32-1.63-3.49-3.81C145.57,339.29,151.28,341.55,155.07,346.76Z"/><path class="cls-65" d="M221.06,267.51c2.22,1.74,2.2,4.49,3,6.85.38,1.11.34,2.31,2,1.86.18,2.6,0,5.13-1.5,7.46C224.13,278.06,221.64,273,221.06,267.51Z"/><path class="cls-66" d="M42.46,58.76a3.6,3.6,0,0,1-2.09,2.81C37.79,56.48,36,50.27,28,52.37c3-2.83,6.93-1.89,10.3,2.22C39.56,56.08,39.51,59,42.46,58.76Z"/><path class="cls-67" d="M446.57,382.66c5.46,2,10,6.28,16.28,6.21.08,1.93-1.21,1.15-2.14,1.08C455.22,389,450.13,387.31,446.57,382.66Z"/><path class="cls-68" d="M472.05,388.86c6.63-.29,11.77-4,17-7.52-3.19,5.88-8.94,7.36-14.83,8.58C473.23,390.05,472,390.78,472.05,388.86Z"/><path class="cls-69" d="M495.85,365.84c.61-1.08,1.29-1.28,2.07-.16-1.49,4.47-2.44,9.16-5.53,13-.82,1-1.31,2.34-3,2.12C492.23,376.08,495.94,371.78,495.85,365.84Z"/><path class="cls-70" d="M532,147.71a.87.87,0,0,1,.08.84l-7.49-2.28c3.79-1.07,7.08-3.43,10.9-4.49a21.79,21.79,0,0,1-3.85,3C528.41,146.33,532,146.74,532,147.71Z"/><path class="cls-71" d="M472.05,388.86l2.13,1.06a24.66,24.66,0,0,1-13.47,0l2.14-1.08Z"/><path class="cls-72" d="M487.37,141.8c3.83.9,7,3.38,10.9,4.67l-7.4,1.29c-.14-1,3.44-1.61.22-2.93A7,7,0,0,1,487.37,141.8Z"/><path class="cls-73" d="M360,77.82c2.51.67,4.09,3.58,7.14,3,.07,3.3,4.33,3.14,4.95,6-5-2.2-9.05-5.7-13.38-8.82C359.06,77.38,359.48,77.33,360,77.82Z"/><path class="cls-74" d="M311.88,100.75l1.62.1c-1.71,1.17-3.28,2.68-5.16,3.42-3.33,1.32-1.93,2.61-.32,4.1l-6.23-.88C304.78,104.15,308.59,102.81,311.88,100.75Z"/><path class="cls-41" d="M33.52,110.77c3.92,2.36,6.95,6.23,11.8,7-3.87,3-5.71-1-8.19-2.49A8.64,8.64,0,0,1,33.52,110.77Z"/><path class="cls-75" d="M375.13,11.88c-4.94-2.23-10.43-3.09-15.1-6C365.53,6.71,371,7.51,375.13,11.88Z"/><path class="cls-76" d="M280,45.89a1,1,0,0,0-.07.72L262.17,47,260,46.83c1.56-2.37,3.81-.82,5.7-.89C270.46,45.75,275.24,45.88,280,45.89Z"/><path class="cls-77" d="M9.23,89.77c-3.53,5.17-2,10.38-.12,15.59C4.38,100.29,4.43,94.15,9.23,89.77Z"/><path class="cls-78" d="M165.08,357.2c-3.49-3.38-7.18-6.56-10.08-10.51C159.6,349,163.23,352.25,165.08,357.2Z"/><path class="cls-79" d="M26.14,52.52c-2.28,3.55-4.32,7.21-5,11.45C19.71,59.69,21.52,55.56,26.14,52.52Z"/><path class="cls-51" d="M63.75,172.08A64.42,64.42,0,0,1,57.87,159a1.5,1.5,0,0,0,.35-.36c4.13,2.75,6.84,8.69,6,13.08C64,171.82,63.89,172,63.75,172.08Z"/><path class="cls-80" d="M450,339.69l-9.07,10.07C442.3,344.91,445.16,341.41,450,339.69Z"/><path class="cls-81" d="M198,146.87a27,27,0,0,1,13.52-6.08A44.54,44.54,0,0,1,198,146.87Z"/><path class="cls-82" d="M483.91,125.73c-.74,5.55,1,10.62,3,15.64C482.26,136.36,481.31,131.48,483.91,125.73Z"/><path class="cls-83" d="M373,366.22c-3-3.83-5.88-7.7-7-12.57A30.29,30.29,0,0,1,373,366.22Z"/><path class="cls-84" d="M340.88,239c.57,3.93,4.72,4.89,6.48,7.85-4.38-1-6.78-4-8.24-8-.19-.51-.63-1.81.81-1.49C340.34,237.43,340.57,238.39,340.88,239Z"/><path class="cls-85" d="M28.11,86.74c-5.36.58-10.91-1-16.1,1.47,2.16-3.4,5.7-2.36,8.75-2.54a56.24,56.24,0,0,1,7.42.48Z"/><path class="cls-86" d="M571,34.81a28.73,28.73,0,0,1-7-10A19.34,19.34,0,0,1,571,34.81Z"/><path class="cls-87" d="M315.55,109.88a14.21,14.21,0,0,1,11.41,6Z"/><path class="cls-88" d="M28.11,86.74a.53.53,0,0,0,.07-.59c0-.82-.09-1.63-.14-2.45,3.17.08,4.05,3,6.82,5.21C31.81,88.36,29.73,88.33,28.11,86.74Z"/><path class="cls-89" d="M538,138a33.66,33.66,0,0,0-.06-14.78C541.11,128.17,541,133.1,538,138Z"/><path class="cls-90" d="M499.06,470.56l-.89,1.17a74.25,74.25,0,0,1,0-15,2,2,0,0,0,.59.16c.71.11.81.41.28.91Z"/><path class="cls-91" d="M104,190.32c3.07-3.48,7.08-5,11.57-5.54C112.05,187.24,108,188.64,104,190.32Z"/><path class="cls-92" d="M206.1,99.8c-2.76-3.37-4.78-7.07-5.07-11.53C203.26,91.87,205.3,95.56,206.1,99.8Z"/><path class="cls-93" d="M176,157.36c2.79-3.65,6.89-4.68,11.08-5.54C183.85,154.54,179.82,155.72,176,157.36Z"/><path class="cls-94" d="M122.56,82.77c-3.69,2.28-7.3,4.75-11.85,5C114.45,85.6,118.07,83.15,122.56,82.77Z"/><path class="cls-95" d="M173.26,196.51c3.32,1.91,5.71,4.73,8.46,8.37L172.79,197C173,196.85,173.11,196.69,173.26,196.51Z"/><path class="cls-96" d="M152,168.32c2.83-3.57,6.89-4.66,11.08-5.5C159.86,165.55,155.83,166.71,152,168.32Z"/><path class="cls-94" d="M146.54,71.77c-3.7,2.24-7.28,4.77-11.84,5C138.44,74.58,142.05,72.14,146.54,71.77Z"/><path class="cls-97" d="M195.08,76.31c-2.37-3.73-4.81-7.42-5.05-12C192.19,68.09,194.67,71.76,195.08,76.31Z"/><path class="cls-98" d="M170.54,60.77c-3.71,2.23-7.28,4.79-11.85,5C162.42,63.55,166.06,61.16,170.54,60.77Z"/><path class="cls-99" d="M564,24.81a22.74,22.74,0,0,1-8-8A16.38,16.38,0,0,1,564,24.81Z"/><path class="cls-92" d="M217.07,124.28c-2.41-3.7-4.79-7.42-5-12C214.17,116.07,216.65,119.74,217.07,124.28Z"/><path class="cls-100" d="M211.07,111.29c-2.28-3.59-4.58-7.16-5-11.55C208.61,103.21,210.59,106.92,211.07,111.29Z"/><path class="cls-101" d="M139.05,173.86a19.66,19.66,0,0,1,11.54-5.07C147,171,143.29,173.06,139.05,173.86Z"/><path class="cls-102" d="M163,162.86a19.61,19.61,0,0,1,11.3-5C170.81,160.07,167.22,162.12,163,162.86Z"/><path class="cls-103" d="M80.07,200.85c3.33-2.67,7-4.67,11.32-5C87.82,198,84.26,200.12,80.07,200.85Z"/><path class="cls-104" d="M469.13,272.65a1.12,1.12,0,0,1-1.24-1.11c1.05-3.31,2.28-6.53,5.12-8.8C472.91,266.51,468.94,268.77,469.13,272.65Z"/><path class="cls-105" d="M189.2,264.92a14.61,14.61,0,0,1-5.52,9.36l5.1-9.7A1.07,1.07,0,0,1,189.2,264.92Z"/><path class="cls-106" d="M151.73,300.49l9.85-5a17.78,17.78,0,0,1-9.31,5.61A2.06,2.06,0,0,0,151.73,300.49Z"/><path class="cls-107" d="M394.06,111.78a19.36,19.36,0,0,1-6-9A17.94,17.94,0,0,1,394.06,111.78Z"/><path class="cls-108" d="M358,274.69l10,4.1c0,.36-.08.72-.13,1.08C364.37,278.54,360.26,278.36,358,274.69Z"/><path class="cls-109" d="M399.05,121.78a23.64,23.64,0,0,1-5-10A18.24,18.24,0,0,1,399.05,121.78Z"/><path class="cls-110" d="M243.41,236.71a9.87,9.87,0,0,1-7.4-7.29Z"/><path class="cls-111" d="M316,308.55c0-.32,0-.63.06-.95,3.92.18,7.77.56,11,3.09C323.19,310.92,319.79,308.68,316,308.55Z"/><path class="cls-112" d="M340.34,12.8c-2.31,2.79-5.4,4.57-8.39,6.47C333.61,15.64,336.63,13.77,340.34,12.8Z"/><path class="cls-113" d="M90.13,385.67a16,16,0,0,1-8-6A16,16,0,0,1,90.13,385.67Z"/><path class="cls-114" d="M181,55.75c-2.69,2.31-5.66,4-9.32,4C174.63,58,177.52,56.15,181,55.75Z"/><path class="cls-106" d="M21.11,65.65c.74,2.94,1.47,5.88,2.39,9.55-2.62-2-2.07-4.65-3.34-6.4C20.41,67.73,19.47,66.3,21.11,65.65Z"/><path class="cls-94" d="M133.53,77.77c-3.06,1.81-5.92,4.12-9.78,4C126.86,80.05,129.71,77.71,133.53,77.77Z"/><path class="cls-115" d="M200.07,87.28c-1.93-3.11-4.21-6.07-4-10C197.84,80.4,199.91,83.46,200.07,87.28Z"/><path class="cls-116" d="M109.55,88.76c-3.08,1.79-5.93,4.14-9.8,4C102.86,91,105.73,88.72,109.55,88.76Z"/><path class="cls-117" d="M385,459.78a8.49,8.49,0,0,1,6-5c-.41,1.3-1.75,2.48-.53,4C388.29,457,386.88,459.56,385,459.78Z"/><path class="cls-118" d="M117,184.35c2.33-3.09,5.55-4.35,9.31-4.48A44.6,44.6,0,0,1,117,184.35Z"/><path class="cls-119" d="M390.91,273.75c2.19-2.29,3.75-4.75,2-8C396.34,269.4,395.84,271.41,390.91,273.75Z"/><path class="cls-120" d="M579,165.72c.27-.95,1.1-.87,1.82-1,0,3.84,1.13,7.77-.81,11.48C579.21,172.75,581,169.05,579,165.72Z"/><path class="cls-121" d="M157.52,66.77c-3.07,1.81-5.93,4.13-9.8,4C150.82,69,153.74,66.82,157.52,66.77Z"/><path class="cls-122" d="M476.93,254.74l0,1.1c-.83,2.62-1.63,5.25-4,7C473.12,259.55,475.19,257.22,476.93,254.74Z"/><path class="cls-123" d="M415,434.78c.38-2.85,4.46-3,4.45-6.14,2,.14,2.25,1,.88,2.33C418.74,432.49,417.31,434.26,415,434.78Z"/><path class="cls-120" d="M575,195c-.05-3.57,1.64-6.59,3-9.72C578.32,188.91,576.91,192,575,195Z"/><path class="cls-124" d="M326.92,115.83a7.86,7.86,0,0,1,6.07,6.36C330.86,120.17,328.48,118.39,326.92,115.83Z"/><path class="cls-125" d="M548.85,335.75l1.09-1c1.14-.05,2.34-.37,3.25.7l-.29.39c-1.88,1.77-2.93,4.53-5.92,5a3,3,0,0,1-.35-.36C546.51,338.46,548.34,337.42,548.85,335.75Z"/><path class="cls-126" d="M575,42.83a17.64,17.64,0,0,1-4-8.07A11.44,11.44,0,0,1,575,42.83Z"/><path class="cls-127" d="M175.46,375.7c-.12-2.71-2.19-4.59-3-7,3.68.3,2.37,5.66,6.05,6A2.45,2.45,0,0,1,175.46,375.7Z"/><path class="cls-128" d="M382.89,277.66c2.57-1.57,5.06-3.31,8.08-4-1.43,2.7-4,3.51-6.72,4.09Z"/><path class="cls-82" d="M488.92,118.72l-5.06,7.08C484.23,122.49,485.67,120,488.92,118.72Z"/><path class="cls-129" d="M356.16,267.71c-.91,2.77.41,4.94,1.9,7.06C354.12,273.31,353.13,271.05,356.16,267.71Z"/><path class="cls-130" d="M268.49,322.69c-2.18,2-4.44,3.78-7.55,4A11.17,11.17,0,0,1,268.49,322.69Z"/><path class="cls-131" d="M242,337.65a9.42,9.42,0,0,1-7.51,4.08C236.72,339.88,239,338.17,242,337.65Z"/><path class="cls-132" d="M191,242.62c.25.87,1,1.15,1.72,1.39-.23.26-.47.51-.7.76l-6.62-1.14.07-1Z"/><path class="cls-56" d="M491.88,233.78a15.56,15.56,0,0,1,9.1,2C497.74,236.05,494.62,235.78,491.88,233.78Z"/><path class="cls-133" d="M553.91,222.33c1.27-2.85,3.18-5,6.39-5.56A19.51,19.51,0,0,1,553.91,222.33Z"/><path class="cls-134" d="M414.94,423.05c-2.08-1.81-4.46-3.38-4.93-6.42C412.32,418.26,414.43,420,414.94,423.05Z"/><path class="cls-135" d="M560.93,216.14c.29-3.24,3-4.68,5-6.65C565.5,212.65,563,214.24,560.93,216.14Z"/><path class="cls-136" d="M410,416.67a8.52,8.52,0,0,1-5-6A11.79,11.79,0,0,1,410,416.67Z"/><path class="cls-137" d="M197.51,363.68c-2.17,2-4.45,3.77-7.55,4A11.2,11.2,0,0,1,197.51,363.68Z"/><path class="cls-138" d="M214.09,136.29c-.2-3.41,1.24-6.28,3-9C217.31,130.67,215.86,133.53,214.09,136.29Z"/><path class="cls-139" d="M75,195.23c2.28,1.33,1.35,5.62,5.13,5.57-1.66,2.27-2.87,1.4-3.74-.62C75.7,198.61,74.27,197.21,75,195.23Z"/><path class="cls-140" d="M216,352.64a9.38,9.38,0,0,1-7.52,4.08C210.75,354.92,213,353.14,216,352.64Z"/><path class="cls-141" d="M409,439.77a8.8,8.8,0,0,1,6-5A11.22,11.22,0,0,1,409,439.77Z"/><path class="cls-142" d="M403,444.77a8.66,8.66,0,0,1,6-5A11.27,11.27,0,0,1,403,444.77Z"/><path class="cls-143" d="M320.35,28.79a18.06,18.06,0,0,1-6.4,5.44A8.17,8.17,0,0,1,320.35,28.79Z"/><path class="cls-144" d="M397,449.77a8.58,8.58,0,0,1,6-5A11.37,11.37,0,0,1,397,449.77Z"/><path class="cls-145" d="M327.41,22.8A17.73,17.73,0,0,1,321,28.25C322,25.16,324.33,23.52,327.41,22.8Z"/><path class="cls-146" d="M391,454.77a8.56,8.56,0,0,1,6-5A11.34,11.34,0,0,1,391,454.77Z"/><path class="cls-147" d="M190,367.64a9.41,9.41,0,0,1-7.52,4.07C184.75,369.9,187.06,368.18,190,367.64Z"/><path class="cls-148" d="M366.06,353.71A9.53,9.53,0,0,1,362,346.2C363.87,348.42,365.57,350.74,366.06,353.71Z"/><path class="cls-149" d="M261,326.65a9.27,9.27,0,0,1-7.51,4.08C255.74,328.93,258,327.15,261,326.65Z"/><path class="cls-150" d="M223.51,348.69c-2.17,2-4.46,3.74-7.56,4A11.11,11.11,0,0,1,223.51,348.69Z"/><path class="cls-151" d="M189,474.24c1.46-3.28,4.36-4.17,7.56-4.56C194.37,471.71,191.65,472.9,189,474.24Z"/><path class="cls-152" d="M249.49,333.7c-2.18,2-4.45,3.75-7.54,4A10.87,10.87,0,0,1,249.49,333.7Z"/><path class="cls-153" d="M470.4,13.82A19.81,19.81,0,0,1,464,19.2,8.19,8.19,0,0,1,470.4,13.82Z"/><path class="cls-154" d="M506,.77,506,0h9.95q0,.36-.06.72Z"/><path class="cls-155" d="M163.08,488.76a9.53,9.53,0,0,1,7.51-4.08C168.33,486.49,166.06,488.28,163.08,488.76Z"/><path class="cls-156" d="M308,356.56c-1.65,2.78.68,5.28.59,8-.06,1.85.84,3.85-1.28,5.16-3.2,3.18-6.93,2.68-10.71,1.5-12-3.76-21.42-16.15-21.95-28.77a7,7,0,0,0-.28-2.94c3.15-3.75,7.36-3.06,11.32-2.32,4.76.89,8.81,3.44,12.39,6.69,1.18.53,2.71-.07,3.68,1.15,1.81,2.54,3.36,5.26,5.38,7.68C308,353.75,309.24,354.92,308,356.56Z"/><path d="M305.65,320.11c4-3.65,8.59-3,13.07-1.64,13.25,4,21.87,17.37,21.11,32.39-12.29,4.36-21.83-2.21-29.42-13.43A28,28,0,0,1,305.65,320.11Z"/><path class="cls-5" d="M305.65,320.11c2.3,0,1.22,1.72,1.32,2.68,1.14,10.92,6.47,19.27,15.56,25.23,4.3,2.81,9.09,4,14.18,2.51a3.32,3.32,0,0,1,3.12.33c-2.3,4.29-3.54,9.34-8.38,11.84-7.24,3.25-13.58.46-19.83-2.95L308,356.56c-2.27-4-5.66-7.31-7.23-11.74a19.65,19.65,0,0,1,1.81-22.07Z"/><path class="cls-5" d="M274.35,339.47c2.92.08,1.33,2.35,1.48,3.48,1.57,11.71,7.64,20.22,18,25.78,4.32,2.32,8.87,2.22,13.48.95-.15,6.34-3.56,10.24-9.29,12.41-4.8,2.52-9.28.86-13.76-1-2-.84-3.57-2.44-5.56-3.32L274,373.23c-2.23-3.87-4.88-7.53-5.92-12-1.57-6.25-2.41-12.4,2.23-17.87Z"/><path class="cls-157" d="M194,382.46a2.19,2.19,0,0,1-2.66-1.35c-.8-1.85.43-2.69,1.83-3.47,5.08-2.85,10.12-5.75,15.18-8.62l16.46-9.38c1.62-.92,3.53-2.12,4.79,0s-.88,3.12-2.44,4q-15.6,8.9-31.21,17.75C195.23,381.83,194.49,382.2,194,382.46Z"/><path class="cls-158" d="M137.88,450.16c-.65.14-1.74-1.21-1.51-.58,3.76,10.37,4.91,21.36,7.81,31.91-2,1.36-.6,3.56-1.31,5.24-1.76-9.84-2.54-19.87-5.75-29.43-1.3-3.9-2.54-7.82-3.81-11.73.55-.55-.26-2.38,1.6-1.71C135.41,446.19,138.46,447.32,137.88,450.16Z"/><path class="cls-159" d="M270.35,343.36c-3.5,5.86-3.2,12.05-1.58,18.35q-.51.82-1.14.09c-2.52-5.39-2.14-10.81.07-16.14C268.11,344.66,267.93,342.3,270.35,343.36Z"/><path class="cls-160" d="M302.56,322.75c-4.95,7-4.21,14.47-1.81,22.07-1.38,1-2.17.38-2.69-1-.07-4.12-.34-8.25-.15-12.35C298.08,328,298.65,324.4,302.56,322.75Z"/><path class="cls-161" d="M134.91,443.86l-1.6,1.71q-3.87-8.43-7.73-16.87C130.23,432.8,131.88,438.76,134.91,443.86Z"/><path class="cls-162" d="M311.62,359.75c1.75-.82,2.77.73,3.95,1.38,5.11,2.8,10.46,2.37,15.88,1.57C325.12,366.26,318.11,365.22,311.62,359.75Z"/><path class="cls-163" d="M278.67,377.76c2.92.11,4.75,2.53,7.32,3.43,3.95,1.39,7.89,2.06,12,.9-1.58,3.07-4.47,1.78-6.64,1.6C286.51,383.28,282,381.63,278.67,377.76Z"/><path class="cls-164" d="M112.08,407.63c2,2.35,4.4,2.37,7,1-2.13,1.82-2.59,3.71-.69,6.11,1,1.22,2.18,2.59,1.7,4.47C117.23,415.46,113.94,412,112.08,407.63Z"/><path class="cls-165" d="M267.63,361.8l1.14-.09L274,373.23C270.52,370.2,268.67,366.23,267.63,361.8Z"/><path class="cls-97" d="M163.71,382.64c2.32-1.89,4.62-3.81,7.82-4C169.28,380.69,166.94,382.54,163.71,382.64Z"/><path class="cls-166" d="M150,471.22a31.78,31.78,0,0,1-4.54-7.54C148.73,465.16,149.69,468,150,471.22Z"/><path class="cls-167" d="M32.29,370.68a70.07,70.07,0,0,1,15.87,5.25c9,4,17.43,9,24.58,15.91,1.27,1.23,2.41,2.63.75,4.23-1.44,1.37-2.71.34-3.88-.74-10.88-10-23.65-16.44-37.94-20-1.57-.39-3.56-.71-3.21-3C28.71,370.68,30.18,370.51,32.29,370.68Z"/><path class="cls-96" d="M107,401.16c2,1.95,4.21,3.71,5.1,6.52C109.64,406.12,107.36,404.41,107,401.16Z"/><path class="cls-168" d="M339,434.14c-1.74,2.63-1,4.21,1.74,5.8,2.09,1.21,4.86,2.23,5.26,5.31-5.09-3.53-9.93-7.45-15.62-10.29C333.29,435.13,336.44,437.41,339,434.14Z"/><path class="cls-169" d="M323.87,413.85A46.79,46.79,0,0,1,341,417.31l.09,1.17c-6-1.35-11.83-3.48-18.12-2.83Z"/><path class="cls-170" d="M364.9,471.7c1.3,1,2.39,2.55,4.19.38.94-1.12,2-2.7,4-2.32-.58,2.06-2.61,2.73-4,4s-2.88,2.13-1.47,4.54A8.63,8.63,0,0,1,364.9,471.7Z"/><path class="cls-171" d="M359.44,461.68c3.78,2.29,4.86,6.06,5.5,10.07Q362.18,466.73,359.44,461.68Z"/><path class="cls-172" d="M379,464.77a8.34,8.34,0,0,1,6-5A11.61,11.61,0,0,1,379,464.77Z"/><path class="cls-172" d="M373,469.77a8.36,8.36,0,0,1,6-5A11.53,11.53,0,0,1,373,469.77Z"/><path class="cls-8" d="M262.93,167.79c6.67-3.83,14.46-5,21.09-9,2.12,2.83,1.58,6.26,1.79,9.41.25,3.92,2.07,5.2,5.69,5.16,7-.09,14,.15,20.94-.08,4-.14,7.33.53,10.12,3.84a12.54,12.54,0,0,0,6.41,4.46,72.46,72.46,0,0,0,30.47,12.17,88.58,88.58,0,0,0,28.09,1c.68-1.25,1.94-.89,3-1.09,7.17-1.08,8.54-6.58,9.47-12.42,1.6-.56-.06-1.68.42-2.43,2.27-2.08,1.22-5.36,2.75-7.7.1-.14.25-.26.29-.41,2.11-7.91,2.07-7.8,10-4.89,9.12,3.37,17.95,7.55,27.36,10.17,2.63,1.2,5.16,2.66,8.14,2.84l3.61,2.5c-14.37,5.6-28.33,11.06-42.3,16.46-10.69,4.14-21.41,8.17-32.09,12.33-1.9.74-3.61,1.31-5.7.49Q317.71,189.15,262.93,167.79Z"/><path class="cls-173" d="M356.53,165.09h32.41v.57H356.53Z"/><path class="cls-174" d="M387.53,194.75a54.31,54.31,0,0,1-28.09-1A196.64,196.64,0,0,0,387.53,194.75Z"/><path class="cls-175" d="M360,77.82l-1.29.13c-2.6-1.39-4.83-.85-7.32.69-2.71,1.67-5.12,4.22-8.72,4.09,3.45-2.21,6.92-4.38,10.34-6.63C356,74.13,357.82,76.51,360,77.82Z"/><path class="cls-174" d="M400,181.24c.51,7.81-2.44,11.68-9.47,12.42C396.92,192,397.65,186,400,181.24Z"/><path class="cls-176" d="M371.84,140.64c5.2-2.78,11-3.8,16.62-5.08-5.26,2.37-10.55,4.66-16.37,5.38Z"/><path class="cls-177" d="M372.09,140.94c-4.85,2.62-10.16,3.61-15.45,4.71,4.92-2.17,9.8-4.44,15.21-5Z"/><path class="cls-178" d="M365.36,119.58c1.66-1.88,3.63-3.18,7.28-4.18A14.84,14.84,0,0,1,365.36,119.58Z"/><path class="cls-179" d="M362.6,121c-1.65,1.88-3.63,3.19-7.28,4.18A14.92,14.92,0,0,1,362.6,121Z"/><path class="cls-180" d="M403.18,171.11c-.49,2.72.15,5.84-2.75,7.7q1.21-4.62,2.45-9.26Z"/><path class="cls-181" d="M366,241.62c.71,2.93,3.89,4.77,3.89,8.76-2.59-3.52-4.8-6.51-7-9.5C363.88,241.12,365.22,240.1,366,241.62Z"/><path class="cls-182" d="M385.28,48.66,358.06,21.39l-1,1,27.36,27.27Z"/><path class="cls-183" d="M350.05,71.4,322.57,44l-1.12,1.1L349,72.66Z"/><path class="cls-184" d="M340.18,33.09l27.46,27.44,1-1L341.16,32.06Z"/><path class="cls-185" d="M304.85,55.44l27.48,27.45,1-1L305.75,54.58Z"/><path class="cls-186" d="M457.62,33.1c2.42.6,3,2.17,1.85,3.79-4.74,6.9-6.82,14.7-8.21,22.78-.24,1.4-.72,2.72-2.4,2.62s-2.14-1.39-2-2.86a49.69,49.69,0,0,1,8.59-24.62A8.76,8.76,0,0,1,457.62,33.1Z"/><path class="cls-187" d="M487.81,38.75c.55-3.64-.14-9.12,3.43-9.13s3.26,5.5,3.16,8.79.94,9-3.38,9C487.54,47.43,488.52,41.75,487.81,38.75Z"/><path class="cls-188" d="M534,38.49c-.32,3.35.32,8.94-3,8.91-4.05,0-3.15-5.63-3.38-9a14.66,14.66,0,0,1,1.17-7.31c.44-.92.91-1.89,2-1.84s1.69,1,2,1.93A18.84,18.84,0,0,1,534,38.49Z"/><path class="cls-189" d="M536,61c0,.26,0,.52,0,.77-13.65-1.35-27.34-.88-41-.87-.24-.22-.31-.42-.21-.62s.18-.29.26-.29C508.68,59.57,522.35,59.16,536,61Z"/><path class="cls-190" d="M495,60c0,.31-.05.61-.05.91-2.24,1.56-4.71,1-7.14.77a1.84,1.84,0,0,1,.12-.73C490.12,59.32,492.6,59.9,495,60Z"/><path class="cls-191" d="M565.76,200.88c-2.37-.49-3-1.76-1.81-3.6A48.94,48.94,0,0,0,571.09,181a2.35,2.35,0,0,1,2.46-2.05c1.31.07,2.41,1,2.17,2.24A40.28,40.28,0,0,1,567.35,200C567,200.49,566.23,200.64,565.76,200.88Z"/><path class="cls-192" d="M499.35,217.91c13.33,2.42,25.51-.85,37.54-7.71C531.05,218,511.61,221.9,499.35,217.91Z"/><path class="cls-193" d="M471.76,198c-2.22-1.81-3.29-5.27-8.08-4.25,2.54-2.37,5.39-2,6.62-4.63-1,3.46.32,6,1.92,8.46Z"/><path class="cls-192" d="M483.77,210a35.15,35.15,0,0,1-12-12,1.17,1.17,0,0,1,.46-.42l11.93,12Z"/><path class="cls-194" d="M540.31,208.48l10.27-10.56A23.48,23.48,0,0,1,540.31,208.48Z"/><path class="cls-195" d="M484.15,209.59l11.4,6.62A19.41,19.41,0,0,1,483.77,210,2.1,2.1,0,0,1,484.15,209.59Z"/><path class="cls-196" d="M552.27,188.83c1.59,2.23,3.78,2.92,6.11,4.1C553,194.45,553,194.45,552.27,188.83Z"/><path class="cls-6" d="M121.19,380.89a13.13,13.13,0,0,1-13.42-13.53A13.43,13.43,0,0,1,121.3,353.8a13.84,13.84,0,0,1,13.57,13.67A13.47,13.47,0,0,1,121.19,380.89Z"/><path class="cls-197" d="M124.26,336.23a23.23,23.23,0,0,1,9.38,2.24c1.23.63,2.27,1.5,1.73,3.09-.65,1.88-2.09,1.88-3.62,1.22a22,22,0,0,0-10.07-1.93c-1.6.08-3.56.59-3.78-1.87-.24-2.77,2-2.46,3.74-2.73A19.24,19.24,0,0,1,124.26,336.23Z"/><path class="cls-198" d="M499.05,457.82a3.68,3.68,0,0,0-.28-.91c19.22-.07,38.45-.11,57.68-.25,1.87,0,4,.83,5.55-1.14,1.25,4-2.1,2.05-3.08,2.06-14.47.15-28.94.1-43.41.11C510,457.7,504.54,457.78,499.05,457.82Z"/><path class="cls-199" d="M544.77,345.88q0,4.25,0,8.49c-1.81,2.46-4.5,1.75-6.89,1.75q-30.11.11-60.22,0c-3.36,0-6.62.28-9.64,1.87-6.27,3.34-8.06,9.31-9.18,15.68a1.81,1.81,0,0,1-1.78,1.2c-2-.1-1.95-1.87-2.52-3.13-6.55-12.08,2.15-24.43,12.14-26.48a15.15,15.15,0,0,1,4.41-.54q33.79,0,67.58,0C540.71,344.76,543,344.13,544.77,345.88Z"/><path class="cls-200" d="M457,374.89l.9-.69c1-3.39,3.84-5.11,6.31-7.18.91-.56,1.76-.78,2.31.46a38,38,0,0,1,9.59-1.83c5.33-.12,5.75.43,3.73,5.46-.3.75-.5,1.55-.75,2.32-1.53,2.22-3,4.55-5.87,5.24-5.59,2.15-10.77,1.79-15.31-2.5Z"/><path class="cls-201" d="M544.77,345.88q-34.49,0-69-.11c-2,0-4-.15-6-.22-.57-.56-1.69,0-2.05-1,1.63-1.21,3.53-.73,5.31-.73q36,0,71.93,0Z"/><path class="cls-202" d="M467.77,344.54l2.05,1c-13.47,1.55-19.92,12.59-15.32,26.21-5-3.29-2.8-8.34-2.37-12.41C452.94,351.57,459.67,345.78,467.77,344.54Z"/><path class="cls-203" d="M457.93,376.17c4.71,3.21,10,3.12,15.31,2.5C467.54,382.22,460.92,381.14,457.93,376.17Z"/><path class="cls-6" d="M64.18,171.7a43.25,43.25,0,0,0-6-13.07c-2.25-7.72-6.47-14.58-9.48-22-.91-2.26-1.76-4.54-2.64-6.81Q68.63,119.43,91.16,109a14.9,14.9,0,0,0,2-1.33L97,106.33a38.3,38.3,0,0,1,9.56-4.54l1.43-.45a52,52,0,0,1,11.57-5.55l1.43-.45c2.66-2.35,6.42-2.68,9.1-5H132a50.84,50.84,0,0,1,11.56-5.55l1.43-.43a37,37,0,0,1,9.56-4.57l1.44-.46a74.78,74.78,0,0,1,11.08-5.52l-.07.05c3.79-1.46,7.27-3.61,11.07-5.05l-.06.05c1.52-.12,1.74,1.73,3,2l-.06,0c1.46,3.79,3.6,7.27,5.05,11.07L186,81.8c1.73,3.75,3.18,7.64,5.54,11.08l-.05,1.9c2.39,2.64,2.69,6.43,5,9.1v1.9a43.58,43.58,0,0,1,4.53,9.31l.51,1.7c1.78,2,1.66,3.61-.87,4.91a27.87,27.87,0,0,1-4.95,2l-1.15,1c-3.55.89-6.55,3.17-10.09,4.09l-1,1c-4.2,1-7.61,3.85-11.78,4.92l-1.16,1c-3.49.8-6.36,3.15-9.84,4l-1.2,1.07c-4.2,1-7.62,3.85-11.78,4.91l-1.17,1c-3.49.83-6.39,3.11-9.86,4l-1.19,1.08c-4.2,1-7.62,3.84-11.78,4.91l-1.17,1c-3.55.88-6.55,3.15-10.09,4.08l-1,1c-4,1.39-7.73,3.55-11.77,4.91l-1.18,1c-3.48.83-6.39,3.1-9.85,4l-1.16,1c-4.2,1-7.64,3.86-11.82,4.94a1.25,1.25,0,0,0-.77.48c-5.23,2.63-7.71.19-9-4.76A3.62,3.62,0,0,0,64.18,171.7Z"/><path class="cls-204" d="M99.78,167.72c3.68-2.22,7.31-4.55,11.77-4.91-3.4,2.48-2.63,7.26-5.52,10-.38-2.6,1.59-4.6,1.81-7.3C104.84,165.22,102.83,168.6,99.78,167.72Z"/><path class="cls-205" d="M123.76,156.7c3.68-2.22,7.32-4.56,11.78-4.91C131.8,153.88,128.25,156.41,123.76,156.7Z"/><path class="cls-206" d="M147.76,145.7c3.67-2.25,7.33-4.51,11.78-4.91C155.8,142.88,152.24,145.41,147.76,145.7Z"/><path class="cls-207" d="M160.74,139.72c3-1.9,6.07-3.87,9.84-4-1.18,1.46-3,1.77-4.58,2.43-2.55,1.05,0,1.78.08,2.65Z"/><path class="cls-208" d="M112.5,161.82c3.15-1.9,6.19-4,10.09-4.08C119.42,159.57,116.44,161.87,112.5,161.82Z"/><path class="cls-209" d="M136.73,150.71c3.05-1.9,6.07-3.9,9.86-4C143.51,148.57,140.57,150.77,136.73,150.71Z"/><path class="cls-210" d="M603.83,385c1.35,0,10,8.58,10,9.92a2.21,2.21,0,0,1-1.1,2.07,2.15,2.15,0,0,1-2.71-.53c-2.59-2.33-5.13-4.71-7.59-7.17-.78-.79-1.54-1.85-.67-3.1A2.33,2.33,0,0,1,603.83,385Z"/><path class="cls-211" d="M381.14,269.71c-5.08,3-10.15,3.35-15.23,0A31.52,31.52,0,0,0,381.14,269.71Z"/><path d="M389,400.33a24.67,24.67,0,0,0,1.6,2.42c6.81,8.19,13.57,16.41,20.51,24.49,1.69,2,1.14,3-.56,4.37Q392.82,446.22,375.24,461c-1.75,1.46-2.66,1.18-4-.42-6.88-8.34-13.84-16.62-20.8-24.9-1.14-1.36-1.39-2.33.22-3.66,12.06-10,24-20,36.06-30C387.25,401.55,387.8,401.19,389,400.33Z"/><path class="cls-5" d="M395,398.14l-.66-1c-2.51-.7-3.1-5.31-6.9-3.4-7.86,6.94-15.8,13.79-24.2,20.1-2.16,1.62-3.61,4.19-6.26,5.31-1,1.3-2.23,3.17-3.83,2.32s-.66-3.05-.16-4.56c3.7-11.16,7.33-22.36,11.2-33.47,1.62-4.63,3.25-5.42,8-3.91q12.78,4.11,25.47,8.5c2,.68,4.58,1.16,4.63,3.83.07,3.18-.69,6.56-3.08,8.66S395.88,399.88,395,398.14Z"/><path class="cls-212" d="M395,398.14l3,2.59c.35-.43.64-.64.73-.91,3-9.05,3-9-5.95-12-7.51-2.49-15-5.06-22.5-7.6-1.78-.6-3.31-1.25-4.2,1.5-4.26,13.17-8.71,26.29-13.35,40.2l4.29-2.8c-2.51,4.46-6.91,6.84-10.79,9.78-.14-.17-.28-.34-.41-.52,8.4-13.84,11.29-29.77,16.88-44.68,2.71-7.24,3.18-7.67,10.39-5.3,8.55,2.82,17.08,5.65,25.58,8.58,5.41,1.85,6.12,3.22,4.35,8.52-1,3-1.38,6.16-2.81,9l-.44.41C397.91,402.83,395.08,401.44,395,398.14Z"/><path class="cls-213" d="M387.43,393.72c1.11-1.46,2.26-2.47,3.8-.45,1,1.31,2.07,2.57,3.1,3.85C391.2,397.68,390.8,392.68,387.43,393.72Z"/><path class="cls-214" d="M293,155.66c13.72-5.22,27.5-10.31,41.13-15.75,4.23-1.68,5.71-.73,5.83,3.64.08,3,.57,5.92.88,8.88-6.09.38-12.27.14-18.06,2.61-4,1.7-7.37,4-7.75,8.77-.19,2.28-1.5,2.14-3,2.14-5,0-9.94-.19-14.89.06-3.21.17-4.64-.86-4.24-4.11C293.14,159.82,291.56,157.71,293,155.66Z"/><path class="cls-215" d="M143.58,84.8C140,87.28,136,88.74,132,90.35,135.08,86.85,139.12,85.38,143.58,84.8Z"/><path class="cls-216" d="M167.09,73.82c-3.27,2.7-7.23,4-11.08,5.52C158.88,75.84,162.89,74.64,167.09,73.82Z"/><path class="cls-217" d="M178.09,68.82A25.6,25.6,0,0,1,167,73.87,22.22,22.22,0,0,1,178.09,68.82Z"/><path class="cls-218" d="M119.59,95.79c-3.55,2.49-7.59,4-11.57,5.55C111.11,97.88,115.11,96.35,119.59,95.79Z"/><path class="cls-219" d="M154.57,79.8A40,40,0,0,1,145,84.37,12.26,12.26,0,0,1,154.57,79.8Z"/><path class="cls-220" d="M130.12,90.35c-2.22,3.15-6,3.54-9.1,5C123.13,92,126.92,91.71,130.12,90.35Z"/><path class="cls-219" d="M106.59,101.79c-2.9,2.12-6.26,3.28-9.56,4.54C99.45,103.22,102.78,102,106.59,101.79Z"/><path class="cls-221" d="M195.72,123.7a7.14,7.14,0,0,1,3.77-2.1c2.69-.8,3.23-2.41,2-4.81a12.72,12.72,0,0,1,4.56,10.08C204.66,119.23,199.59,123.43,195.72,123.7Z"/><path class="cls-215" d="M191.52,92.88C188,90,187,85.91,186,81.8,188.76,85,190.1,89,191.52,92.88Z"/><path class="cls-222" d="M186,81.87A24.05,24.05,0,0,1,181,70.8,22.74,22.74,0,0,1,186,81.87Z"/><path class="cls-223" d="M201,115.09c-2.26-2.74-3.25-6.1-4.53-9.31C199.56,108.13,200.76,111.38,201,115.09Z"/><path class="cls-219" d="M196.5,103.88c-3.29-2.14-3.47-6-5-9.1C194.81,96.9,195.14,100.67,196.5,103.88Z"/><path class="cls-224" d="M468.32,334.64q-.19-21.19-.37-42.38c0-3.66,0-7.32,0-11,0-7.18,0-7.18,7.06-7.7,3,.46,1.73,2.8,1.73,4.32.07,18.56,0,37.12,0,55.68C474.1,335.2,471.07,333.83,468.32,334.64Z"/><path class="cls-7" d="M496,333.73c-2.48,1.48-5.33,0-7.87,1q-.14-29.28-.33-58.57c0-2,.7-2.63,2.6-2.47s3.63.12,5.45.17a3,3,0,0,1,.52,1.36c0,19.2.06,38.41,0,57.61A2.89,2.89,0,0,1,496,333.73Z"/><path class="cls-201" d="M496,333.73l-.15-59.9,1-.29q0,28.26.1,56.52C497,331.35,497.26,332.74,496,333.73Z"/><path class="cls-206" d="M171.74,134.71c3.68-2.25,7.34-4.52,11.78-4.92C179.79,131.89,176.23,134.42,171.74,134.71Z"/><path class="cls-225" d="M184.48,128.83c3.15-1.88,6.19-4,10.09-4.09C191.42,126.63,188.4,128.85,184.48,128.83Z"/><path class="cls-205" d="M75.77,178.69c3.7-2.23,7.35-4.56,11.82-4.94C83.83,175.8,80.29,178.42,75.77,178.69Z"/><path class="cls-226" d="M88.75,172.71c3-1.91,6.07-3.88,9.85-4C95.52,170.55,92.59,172.77,88.75,172.71Z"/><path class="cls-191" d="M275.59,119.06c.4-2.29-.23-5,2.6-5s1.69,2.58,2,4.2a14.68,14.68,0,0,0,.85,3.3c.66,1.52,1.8,3.14-.35,4.2-2.3,1.13-3.34-.81-4.06-2.4A21.25,21.25,0,0,1,275.59,119.06Z"/><path class="cls-6" d="M400.16,404.52c-1.84-4.24,1.23-7.62,2.25-11.28.72-2.62.18-3.53-2.15-4.3-10.37-3.39-20.74-6.78-31-10.39-2.92-1-3.63.2-4.42,2.62-3.84,11.77-8,23.45-11.71,35.26-1.48,4.69-3.22,9-7.32,12-1.42-1.51.11-2.86.49-4.05,5.28-16.2,10.8-32.32,16.05-48.53,1.08-3.32,2.43-3.72,5.59-2.61q18.47,6.53,37.14,12.46c3.25,1,3.48,2.42,2.43,5.18-1.59,4.16-3.08,8.38-4.28,12.67C402.54,405.82,401.63,405.56,400.16,404.52Z"/><path class="cls-227" d="M466.54,367.48l-1.55-.31a3.24,3.24,0,0,1-1.79,1.61c-1,.47-2.11,1.57-3.15.75-1.28-1-.42-2.39.1-3.59a18.17,18.17,0,0,1,8.06-9,21,21,0,0,1,9.17-1.7c20.9.07,41.79,0,62.69.06,1.62,0,3.32-.46,4.86.48,1.28,2.6,2.55,5.2,3.83,7.79-22.91.07-45.82.1-68.72.23a51.58,51.58,0,0,0-9.36.95C469.1,365,466.84,365,466.54,367.48Z"/><path class="cls-228" d="M547,340.79c1.77-1.9,2.8-4.68,5.92-5,7.43,8.45,5.92,17.52,1.9,26.78-4.61,2.27-6.27-1-7.52-4.31C545.11,352.54,546,346.64,547,340.79Z"/><path class="cls-229" d="M544.93,355.74c-22,0-44,0-66.06-.06a28.72,28.72,0,0,0-11.54,2.17,1,1,0,0,1-1.33-.11c3.14-3,7-3.32,11.07-3.32q33.84,0,67.66-.05C544.8,354.83,544.87,355.29,544.93,355.74Z"/><path class="cls-78" d="M466,357.74l1.33.11c-3.33,3.24-7.24,6.14-7.33,11.79l5-2.47c-1.46,3.24-4.89,4.51-7.07,7C457.7,367.28,459.92,361.56,466,357.74Z"/><path class="cls-5" d="M170.49,111.83c-1.2,4.5-4.83,6-8.67,7.83-11,5.29-22.11,10.36-33.23,15.28-10.76,4.76-21.16,10.36-32.2,14.48a11.93,11.93,0,0,0-2.07,1.3c-8.33,3-11.4,2.28-16.23-4l0,.06c-.58-3-1.76-6.11.42-9,3.53-5.58,9.87-7,15.15-9.73,6.92-3.63,14.32-6.35,21.46-9.61,5-2.26,9.71-5,15-6.86,6.61-2.3,12.79-5.81,19.18-8.74a65.41,65.41,0,0,1,8.61-3.66c4.52-1.35,8.44.06,11.57,3.61C171.62,105.59,172.56,108.55,170.49,111.83Z"/><path class="cls-191" d="M175.14,79.22c-2.33,1-4.49,1.86-6.6,2.84-1.4.65-2.66.71-3.38-.81s.05-2.62,1.4-3.27c2.83-1.38,5.69-2.73,8.6-4,2-.88,3.53-.14,4.41,1.9.67,1.52,1.45,3,2.08,4.52s1.86,3.69-.36,4.85c-2.43,1.26-3-1.24-3.86-2.69C176.7,81.42,176.7,79.7,175.14,79.22Z"/><path class="cls-230" d="M78.09,146.72c4.33,5.73,10,5.89,16.23,4C87.66,155.06,80.89,153.39,78.09,146.72Z"/><path class="cls-231" d="M78.55,137.77c-1.12,2.95-.3,6-.42,9C76.31,143.68,75.31,140.62,78.55,137.77Z"/><path class="cls-232" d="M170.49,111.83c1.14-3.18.33-6.14-1-9C172.62,105.48,173.48,108.44,170.49,111.83Z"/><path class="cls-233" d="M554.73,349.87c-.44,2.05-.2,5.25-2.6,5.26-2.92,0-2.65-3.34-2.65-5.49,0-2-.19-5.11,2.64-5C554.69,344.79,554.34,347.83,554.73,349.87Z"/><path class="cls-6" d="M133,127.35l-1.69.52c-3.28,1.14-6.55,2.31-9.31,4.5a1.1,1.1,0,0,1-1.44.43,18.82,18.82,0,0,0-5.5,2.23c-3.14,2-5.15,1.75-6.79-2.12-2.23-5.24-2.46-5.6,2.66-7.72,8.54-3.55,16.74-7.84,25.31-11.33.64-.12,1.3-.3,1.76.4.17.46.3.93.46,1.39,2.55,7.34,2.55,7.34-4.51,10.68A1.79,1.79,0,0,0,133,127.35Z"/><path class="cls-234" d="M167.87,109a7.8,7.8,0,1,1-7.87-7.92A8.05,8.05,0,0,1,167.87,109Z"/><path class="cls-235" d="M96.32,141.58A7.63,7.63,0,0,1,89,149.43a7.9,7.9,0,0,1-8-7.72,7.66,7.66,0,1,1,15.31-.13Z"/><path class="cls-236" d="M136.28,113.86C128.35,119,119.41,121.92,111,126c-3,1.42-4.51,2.39-2.54,6.06,1.75,3.24,3.15,4.71,6.61,2.37,1.61-1.08,3.4-2.13,5.55-1.6-1.47,1.74-3.84,1.78-5.6,3-3.64,2.45-5.68,1.94-7.33-2.62-2.2-6.11-2.61-5.92,3.35-8.63,7-3.2,14-6.48,21.09-9.68C133.41,114.24,134.65,113.15,136.28,113.86Z"/><path class="cls-237" d="M133,127.35c0-.16-.06-.4,0-.48,3.13-3.11,5.32-8.63,5-12.61.13.09.32.16.39.29C143.28,123.43,143.21,123.57,133,127.35Z"/><path class="cls-238" d="M122,132.37c2.31-3.14,5.56-4.34,9.31-4.5C128.54,130,125.24,131.08,122,132.37Z"/></svg>