<svg width="50" height="19" viewBox="0 0 50 19" fill="none" xmlns="http://www.w3.org/2000/svg">
<path d="M43.4473 3.2848V0.00245106H34.3137L32.8116 10.9681L31.3253 0.00250431H28.0315L28.4005 2.9285C28.0201 2.17892 26.6715 0.00250431 23.7039 0.00250431C23.6843 0.00122554 20.4057 0.00250431 20.4057 0.00250431L20.393 15.9858L17.9923 0.00250431L13.6786 0L11.195 16.5609L11.1963 0.00239781H7.06783L5.5795 9.30468L4.1298 0.00250431H0V18.0069H3.25213V9.32881L4.73146 18.0067H6.46042L7.91897 9.32881V18.0067H14.1885L14.569 15.2363H17.0932L17.4723 18.0067L23.6275 18.0105H23.6325V18.0067H23.6364H23.6402V12.1624L24.3948 12.0525L25.957 18.0105H25.9608H29.137H29.1407L29.1394 18.0067H29.1451H29.1489L27.0989 11.0237C28.1378 10.2552 29.3108 8.30377 28.9986 6.43692V6.4357C29.0023 6.46095 30.9336 18.0182 30.9336 18.0182L34.7201 18.0067L37.3074 1.68718V18.0067H43.4475V14.7686H40.5329V10.6395H43.4475V7.35204H40.5329V3.2848H43.4473ZM14.9521 12.3812L15.845 4.68399L16.7721 12.3812H14.9521ZM24.4053 8.82706C24.1551 8.94843 23.8941 9.00912 23.6401 9.00912V3.21782C23.6445 3.21782 23.6496 3.21665 23.6559 3.21665C23.9106 3.21537 25.8095 3.29369 25.8095 6.08185C25.8095 7.54034 25.1637 8.4593 24.4053 8.82706ZM50 14.7661V18.0042H44.0103V0H47.2353V14.7661H50Z" fill="black"/>
</svg>
