<svg width="20" height="20" viewBox="0 0 20 20" fill="none" xmlns="http://www.w3.org/2000/svg">
<path d="M12.937 4.21099C13.1562 4.3603 13.3071 4.59058 13.3565 4.85116C13.4059 5.11175 13.3498 5.38128 13.2005 5.60049C13.0512 5.81969 12.8209 5.9706 12.5603 6.02001C12.2998 6.06943 12.0302 6.0133 11.811 5.86399C10.8878 5.23637 9.78108 4.93578 8.6672 5.01008C7.55333 5.08439 6.49635 5.52932 5.66467 6.274C4.83299 7.01869 4.27445 8.02028 4.07802 9.11921C3.88159 10.2181 4.05858 11.3512 4.58078 12.3379C5.10299 13.3246 5.94038 14.1081 6.95954 14.5637C7.9787 15.0193 9.12101 15.1207 10.2045 14.8517C11.288 14.5828 12.2503 13.959 12.9381 13.0798C13.626 12.2005 13.9998 11.1163 14 9.99999C14 9.73477 14.1054 9.48042 14.2929 9.29288C14.4804 9.10534 14.7348 8.99999 15 8.99999C15.2652 8.99999 15.5196 9.10534 15.7071 9.29288C15.8947 9.48042 16 9.73477 16 9.99999C15.9998 11.563 15.4764 13.0809 14.5134 14.312C13.5504 15.543 12.203 16.4164 10.686 16.7928C9.16907 17.1693 7.56974 17.0272 6.14287 16.3893C4.716 15.7513 3.54369 14.6542 2.81271 13.2726C2.08174 11.8911 1.83416 10.3047 2.10942 8.76614C2.38467 7.22758 3.16694 5.8254 4.33156 4.78301C5.49619 3.74062 6.97618 3.11799 8.53573 3.01432C10.0953 2.91065 11.6447 3.33192 12.937 4.21099V4.21099Z" fill="black"/>
<path d="M12.539 12.506C12.4284 12.5768 12.3049 12.6251 12.1756 12.6481C12.0463 12.6712 11.9137 12.6686 11.7854 12.6404C11.6571 12.6122 11.5356 12.559 11.4279 12.4839C11.3202 12.4088 11.2283 12.3131 11.1575 12.2025C11.0867 12.0919 11.0384 11.9684 11.0154 11.8391C10.9923 11.7098 10.995 11.5772 11.0231 11.4489C11.0513 11.3206 11.1045 11.1991 11.1796 11.0914C11.2548 10.9837 11.3504 10.8918 11.461 10.821L14.943 8.59401C15.1664 8.45576 15.4352 8.41097 15.6913 8.46931C15.9475 8.52765 16.1704 8.68444 16.3118 8.90578C16.4533 9.12713 16.502 9.39526 16.4474 9.65222C16.3928 9.90917 16.2393 10.1343 16.02 10.279L12.539 12.506V12.506Z" fill="black"/>
<path d="M17.903 12.41C18.0051 12.6511 18.0085 12.9227 17.9125 13.1663C17.8165 13.41 17.6288 13.6062 17.3897 13.713C17.1506 13.8197 16.8791 13.8284 16.6337 13.7371C16.3882 13.6459 16.1883 13.462 16.077 13.225L14.569 9.84498C14.5125 9.72464 14.4805 9.59424 14.475 9.46141C14.4695 9.32857 14.4905 9.19597 14.5368 9.07135C14.5831 8.94673 14.6538 8.8326 14.7448 8.73563C14.8358 8.63867 14.9451 8.56082 15.0665 8.50663C15.188 8.45244 15.3189 8.42301 15.4519 8.42005C15.5848 8.41709 15.717 8.44066 15.8407 8.48939C15.9644 8.53813 16.0771 8.61103 16.1723 8.70385C16.2675 8.79667 16.3432 8.90754 16.395 9.02998L17.903 12.41Z" fill="black"/>
</svg>
