<svg width="20" height="20" viewBox="0 0 20 20" fill="none" xmlns="http://www.w3.org/2000/svg">
<path fill-rule="evenodd" clip-rule="evenodd" d="M9.17531 1.93176C7.25417 1.93176 5.41172 2.69498 4.05327 4.05351C2.69482 5.41205 1.93165 7.25462 1.93165 9.17587C1.93165 11.0971 2.69482 12.9397 4.05327 14.2982C5.41172 15.6568 7.25417 16.42 9.17531 16.42C11.0965 16.42 12.9389 15.6568 14.2974 14.2982C15.6558 12.9397 16.419 11.0971 16.419 9.17587C16.419 7.25462 15.6558 5.41205 14.2974 4.05351C12.9389 2.69498 11.0965 1.93176 9.17531 1.93176ZM2.68739 2.68755C4.40809 0.966741 6.74187 0 9.17531 0C11.6088 0 13.9425 0.966741 15.6632 2.68755C17.3839 4.40836 18.3506 6.74228 18.3506 9.17587C18.3506 11.2838 17.6254 13.3169 16.3131 14.9416L20 18.6353L18.6329 20L14.9479 16.3082C13.3221 17.6243 11.2862 18.3517 9.17531 18.3517C6.74187 18.3517 4.40809 17.385 2.68739 15.6642C0.966682 13.9434 0 11.6095 0 9.17587C0 6.74228 0.966682 4.40836 2.68739 2.68755Z" fill="black"/>
</svg>
